<svg xmlns="http://www.w3.org/2000/svg" xmlns:xlink="http://www.w3.org/1999/xlink" width="60" zoomAndPan="magnify" viewBox="0 0 45 44.999999" height="60" preserveAspectRatio="xMidYMid meet" version="1.0"><defs><clipPath id="032b7f4465"><path d="M 11 38 L 13 38 L 13 40 L 11 40 Z M 11 38 " clip-rule="nonzero"/></clipPath><clipPath id="b3ac1efc8a"><path d="M 18.25 39.324219 C 18.5 38.621094 18.042969 38.464844 17.75 36.238281 C 13.984375 36.097656 13.640625 33.753906 11.195312 35.800781 C 8.109375 38.382812 8.144531 38.671875 8.441406 38.832031 C 9.199219 39.242188 10.570312 37.976562 10.710938 37.847656 C 10.914062 38.53125 10.90625 38.535156 11.386719 39.082031 C 11.488281 39.199219 11.5 39.609375 11.929688 39.839844 C 12.257812 40.019531 13.132812 40.121094 13.242188 40.136719 C 13.597656 39.753906 13.378906 39.503906 13.953125 39.429688 C 14.726562 39.324219 17.03125 39.5625 18.25 39.324219 Z M 18.25 39.324219 " clip-rule="evenodd"/></clipPath><clipPath id="cb72165da8"><path d="M 10 37 L 13 37 L 13 39 L 10 39 Z M 10 37 " clip-rule="nonzero"/></clipPath><clipPath id="c983bf8ea7"><path d="M 18.25 39.324219 C 18.5 38.621094 18.042969 38.464844 17.75 36.238281 C 13.984375 36.097656 13.640625 33.753906 11.195312 35.800781 C 8.109375 38.382812 8.144531 38.671875 8.441406 38.832031 C 9.199219 39.242188 10.570312 37.976562 10.710938 37.847656 C 10.914062 38.53125 10.90625 38.535156 11.386719 39.082031 C 11.488281 39.199219 11.5 39.609375 11.929688 39.839844 C 12.257812 40.019531 13.132812 40.121094 13.242188 40.136719 C 13.597656 39.753906 13.378906 39.503906 13.953125 39.429688 C 14.726562 39.324219 17.03125 39.5625 18.25 39.324219 Z M 18.25 39.324219 " clip-rule="evenodd"/></clipPath><clipPath id="dfb6ff6766"><path d="M 12 37 L 18.347656 37 L 18.347656 40.15625 L 12 40.15625 Z M 12 37 " clip-rule="nonzero"/></clipPath><clipPath id="e4121eade9"><path d="M 18.25 39.324219 C 18.5 38.621094 18.042969 38.464844 17.75 36.238281 C 13.984375 36.097656 13.640625 33.753906 11.195312 35.800781 C 8.109375 38.382812 8.144531 38.671875 8.441406 38.832031 C 9.199219 39.242188 10.570312 37.976562 10.710938 37.847656 C 10.914062 38.53125 10.90625 38.535156 11.386719 39.082031 C 11.488281 39.199219 11.5 39.609375 11.929688 39.839844 C 12.257812 40.019531 13.132812 40.121094 13.242188 40.136719 C 13.597656 39.753906 13.378906 39.503906 13.953125 39.429688 C 14.726562 39.324219 17.03125 39.5625 18.25 39.324219 Z M 18.25 39.324219 " clip-rule="evenodd"/></clipPath></defs><rect x="-4.5" width="54" fill="#ffffff" y="-4.5" height="53.999999" fill-opacity="1"/><rect x="-4.5" width="54" fill="#178fc7" y="-4.5" height="53.999999" fill-opacity="1"/><path fill="#37241f" d="M 16.523438 19.714844 L 11.6875 43.703125 L 34.691406 43.703125 L 33.207031 36.652344 L 27.417969 19.714844 Z M 16.523438 19.714844 " fill-opacity="1" fill-rule="evenodd"/><path fill="#37241f" d="M 7.484375 34.980469 C 7.410156 32.851562 8.769531 24.34375 11.6875 22.679688 C 16.695312 19.828125 17.132812 32.425781 16.191406 34.980469 C 15.019531 38.15625 7.609375 38.691406 7.484375 34.980469 Z M 7.484375 34.980469 " fill-opacity="1" fill-rule="evenodd"/><path fill="#37241f" d="M 27.421875 36.503906 C 27.066406 34.375 27.988281 25.863281 31.628906 24.203125 C 36.894531 21.796875 37.074219 33.949219 36.128906 36.503906 C 34.957031 39.679688 28.035156 40.171875 27.421875 36.503906 Z M 27.421875 36.503906 " fill-opacity="1" fill-rule="evenodd"/><path fill="#a58270" d="M 8.335938 28.570312 C 5.355469 40.28125 10.875 42.433594 11.707031 43.964844 C 12.128906 44.738281 14.117188 31.308594 15.375 32.765625 C 17.085938 34.738281 12.980469 42.628906 18.320312 43.703125 C 21.414062 44.324219 29.109375 43.703125 29.109375 43.703125 C 29.773438 43.203125 30.90625 35.796875 32.03125 35.867188 C 33.898438 35.988281 33.992188 43.863281 34.691406 43.703125 C 35.085938 43.613281 37.65625 43.675781 37.910156 42.96875 C 39.5 38.5625 36.273438 23.410156 34.417969 20.421875 C 33.796875 19.414062 32.9375 18.6875 32.03125 17.917969 C 31.089844 17.121094 30.320312 15.179688 30.21875 14.921875 C 27.652344 8.4375 28.65625 5.824219 25.625 2.484375 C 23.925781 0.613281 20.789062 0.875 20.324219 0.949219 C 13.566406 2.046875 14.554688 8.703125 14.625 10.511719 C 14.726562 13.316406 13.8125 18.707031 13.675781 18.746094 C 10.742188 19.589844 8.335938 28.570312 8.335938 28.570312 Z M 8.335938 28.570312 " fill-opacity="1" fill-rule="evenodd"/><path fill="#fec3b1" d="M 10.335938 18.117188 C 9.265625 17.980469 9.292969 18.574219 9.957031 19.867188 C 10.394531 20.707031 11.621094 20.613281 12.433594 22.183594 C 12.597656 22.503906 15.152344 23.101562 15.273438 22.167969 C 15.90625 17.351562 14.269531 17.535156 13.621094 17.179688 C 13.621094 17.179688 13.261719 16.039062 13.105469 13.816406 C 13.042969 12.9375 11.933594 13.152344 12.09375 14.027344 C 12.328125 15.28125 12.285156 16.769531 12.285156 16.769531 C 12.332031 16.984375 12.070312 17.019531 11.710938 16.601562 C 11.5625 16.425781 10.6875 15.375 9.808594 14.164062 C 9.417969 13.625 8.632812 14.125 9.09375 14.761719 C 9.914062 15.894531 10.125 16.230469 10.738281 17.101562 C 10.226562 17.132812 9.894531 17.414062 10.335938 18.117188 Z M 10.335938 18.117188 " fill-opacity="1" fill-rule="evenodd"/><path fill="#ec8479" d="M 10.863281 17.089844 C 10.824219 17.070312 10.777344 17.089844 10.757812 17.125 C 10.742188 17.164062 10.757812 17.207031 10.800781 17.222656 C 10.945312 17.285156 11.089844 17.296875 11.285156 17.4375 C 11.480469 17.582031 11.726562 17.851562 12.085938 18.429688 C 12.113281 18.472656 12.15625 18.535156 12.1875 18.601562 C 12.210938 18.652344 12.226562 18.710938 12.207031 18.765625 C 12.183594 18.84375 12.089844 18.898438 11.882812 18.933594 C 11.738281 18.960938 11.632812 18.933594 11.464844 18.816406 C 11.269531 18.683594 11 18.445312 10.535156 18.054688 C 10.503906 18.027344 10.453125 18.027344 10.425781 18.058594 C 10.394531 18.089844 10.398438 18.132812 10.429688 18.160156 C 10.902344 18.558594 11.175781 18.800781 11.371094 18.9375 C 11.589844 19.085938 11.726562 19.113281 11.914062 19.078125 C 12.203125 19.027344 12.320312 18.921875 12.359375 18.808594 C 12.382812 18.738281 12.375 18.664062 12.351562 18.59375 C 12.320312 18.5 12.261719 18.414062 12.222656 18.355469 C 11.847656 17.753906 11.585938 17.46875 11.378906 17.320312 C 11.171875 17.171875 11.023438 17.15625 10.863281 17.089844 Z M 10.863281 17.089844 " fill-opacity="1" fill-rule="evenodd"/><path fill="#ec8479" d="M 11.347656 18.804688 C 11.324219 18.769531 11.277344 18.757812 11.238281 18.78125 C 11.203125 18.800781 11.191406 18.847656 11.214844 18.882812 C 11.242188 18.921875 11.445312 19.222656 11.523438 19.480469 C 11.542969 19.554688 11.558594 19.628906 11.546875 19.683594 C 11.539062 19.722656 11.515625 19.753906 11.472656 19.769531 C 11.324219 19.8125 11.199219 19.75 11.039062 19.648438 C 10.761719 19.46875 10.398438 19.167969 9.730469 18.96875 C 9.6875 18.957031 9.644531 18.976562 9.628906 19.015625 C 9.617188 19.054688 9.640625 19.097656 9.679688 19.109375 C 10.328125 19.300781 10.679688 19.59375 10.949219 19.769531 C 11.15625 19.902344 11.324219 19.96875 11.519531 19.910156 C 11.671875 19.863281 11.722656 19.738281 11.703125 19.578125 C 11.667969 19.285156 11.382812 18.855469 11.347656 18.804688 Z M 11.347656 18.804688 " fill-opacity="1" fill-rule="evenodd"/><path fill="#ec8479" d="M 10.386719 19.414062 C 10.425781 19.398438 10.445312 19.351562 10.425781 19.316406 C 10.40625 19.28125 10.359375 19.261719 10.320312 19.28125 C 10.097656 19.375 10.101562 19.375 9.921875 19.511719 C 9.886719 19.539062 9.882812 19.585938 9.910156 19.617188 C 9.9375 19.648438 9.988281 19.652344 10.023438 19.625 C 10.1875 19.5 10.183594 19.503906 10.386719 19.414062 Z M 10.386719 19.414062 " fill-opacity="1" fill-rule="evenodd"/><path fill="#ec8479" d="M 13.65625 18.164062 C 13.660156 18.125 13.625 18.089844 13.578125 18.089844 C 13.535156 18.089844 13.5 18.121094 13.5 18.164062 C 13.492188 18.800781 13.457031 19.082031 13.574219 19.34375 C 13.65625 19.523438 13.804688 19.691406 14.085938 19.957031 C 14.117188 19.988281 14.167969 19.988281 14.199219 19.957031 C 14.230469 19.929688 14.230469 19.882812 14.199219 19.855469 C 13.9375 19.609375 13.792969 19.453125 13.71875 19.289062 C 13.605469 19.039062 13.648438 18.773438 13.65625 18.164062 Z M 13.65625 18.164062 " fill-opacity="1" fill-rule="evenodd"/><path fill="#ec8479" d="M 13.558594 18.527344 C 13.597656 18.503906 13.605469 18.460938 13.582031 18.425781 C 13.554688 18.394531 13.507812 18.382812 13.472656 18.40625 C 12.390625 19.09375 12.265625 19.390625 11.957031 20.324219 C 11.941406 20.363281 11.964844 20.40625 12.007812 20.417969 C 12.050781 20.429688 12.09375 20.40625 12.105469 20.367188 C 12.40625 19.46875 12.527344 19.1875 13.558594 18.527344 Z M 13.558594 18.527344 " fill-opacity="1" fill-rule="evenodd"/><path fill="#ec8479" d="M 13.46875 18.582031 C 13.507812 18.566406 13.539062 18.519531 13.511719 18.484375 C 13.4375 18.386719 11.34375 17.175781 11.507812 17.402344 C 11.648438 17.59375 12.410156 18.585938 12.296875 18.707031 C 11.65625 19.378906 11.402344 18.609375 11.277344 18.769531 C 11.175781 18.894531 11.609375 19.230469 11.65625 19.539062 C 11.695312 19.773438 11.371094 19.96875 11.246094 20.160156 C 11.222656 20.191406 11.234375 20.238281 11.269531 20.257812 C 11.308594 20.28125 11.355469 20.269531 11.378906 20.234375 C 11.988281 19.324219 12.195312 19.070312 13.46875 18.582031 Z M 13.46875 18.582031 " fill-opacity="1" fill-rule="evenodd"/><path fill="#ec8479" d="M 13.703125 17.371094 C 13.742188 17.382812 13.789062 17.363281 13.800781 17.324219 C 13.816406 17.285156 13.792969 17.242188 13.753906 17.230469 C 13.648438 17.199219 12.785156 16.925781 12.226562 16.949219 C 11.949219 16.960938 11.746094 17.050781 11.695312 17.238281 C 11.652344 17.378906 11.730469 17.523438 11.953125 17.683594 C 12.234375 17.886719 12.761719 18.136719 13.535156 18.5 C 13.574219 18.515625 13.621094 18.503906 13.640625 18.464844 C 13.660156 18.429688 13.644531 18.386719 13.605469 18.367188 C 12.847656 18.011719 12.324219 17.769531 12.046875 17.566406 C 11.964844 17.507812 11.90625 17.449219 11.871094 17.398438 C 11.84375 17.355469 11.835938 17.316406 11.847656 17.273438 C 11.863281 17.214844 11.90625 17.175781 11.964844 17.148438 C 12.035156 17.117188 12.128906 17.101562 12.234375 17.097656 C 12.773438 17.074219 13.601562 17.339844 13.703125 17.371094 Z M 13.703125 17.371094 " fill-opacity="1" fill-rule="evenodd"/><path fill="#fec3b1" d="M 18.25 39.324219 C 18.5 38.621094 18.042969 38.464844 17.75 36.238281 C 13.984375 36.097656 13.640625 33.753906 11.195312 35.800781 C 8.109375 38.382812 8.144531 38.671875 8.441406 38.832031 C 9.199219 39.242188 10.570312 37.976562 10.710938 37.847656 C 10.914062 38.53125 10.90625 38.535156 11.386719 39.082031 C 11.488281 39.199219 11.5 39.609375 11.929688 39.839844 C 12.257812 40.019531 13.132812 40.121094 13.242188 40.136719 C 13.597656 39.753906 13.378906 39.503906 13.953125 39.429688 C 14.726562 39.324219 17.03125 39.5625 18.25 39.324219 Z M 18.25 39.324219 " fill-opacity="1" fill-rule="evenodd"/><g clip-path="url(#032b7f4465)"><g clip-path="url(#b3ac1efc8a)"><path fill="#ec8479" d="M 11.523438 39.125 C 11.5 39.15625 11.453125 39.167969 11.414062 39.144531 C 11.378906 39.125 11.367188 39.078125 11.390625 39.042969 C 11.722656 38.570312 11.886719 38.480469 12.664062 38.222656 C 12.703125 38.210938 12.75 38.230469 12.765625 38.269531 C 12.777344 38.308594 12.757812 38.347656 12.714844 38.363281 C 11.992188 38.601562 11.832031 38.679688 11.523438 39.125 Z M 11.523438 39.125 " fill-opacity="1" fill-rule="evenodd"/></g></g><g clip-path="url(#cb72165da8)"><g clip-path="url(#c983bf8ea7)"><path fill="#ec8479" d="M 10.769531 38.054688 C 10.753906 38.09375 10.710938 38.113281 10.667969 38.101562 C 10.628906 38.089844 10.605469 38.046875 10.617188 38.007812 C 10.746094 37.65625 11.019531 37.457031 11.335938 37.328125 C 11.632812 37.207031 11.972656 37.152344 12.253906 37.082031 C 12.292969 37.074219 12.339844 37.097656 12.347656 37.136719 C 12.359375 37.175781 12.335938 37.214844 12.292969 37.226562 C 12.019531 37.292969 11.6875 37.34375 11.398438 37.464844 C 11.121094 37.578125 10.878906 37.75 10.769531 38.054688 Z M 10.769531 38.054688 " fill-opacity="1" fill-rule="evenodd"/></g></g><g clip-path="url(#dfb6ff6766)"><g clip-path="url(#e4121eade9)"><path fill="#ec8479" d="M 16.390625 38.875 C 17.660156 38.421875 17.703125 37.0625 18.398438 38.085938 C 19.703125 40.023438 17.664062 41.632812 13.738281 40.398438 C 12.96875 40.15625 12.664062 39.570312 13.402344 39.261719 C 14.300781 38.882812 15.550781 39.175781 16.390625 38.875 Z M 16.390625 38.875 " fill-opacity="1" fill-rule="evenodd"/></g></g><path fill="#fec3b1" d="M 16.492188 10.5625 C 16.46875 10.101562 16.640625 8.589844 17.589844 7.085938 C 18.167969 6.167969 19.5 4.796875 19.917969 4.882812 C 22.464844 5.402344 23.4375 6.300781 23.976562 6.722656 C 24.613281 7.214844 25.785156 8.664062 26.125 10.015625 C 26.125 10.015625 26.492188 11.527344 26.261719 12.097656 C 25.523438 13.90625 23.816406 15.113281 22.21875 15.371094 C 19.992188 15.734375 18.070312 14.402344 17.164062 13.445312 C 16.78125 13.042969 16.492188 10.5625 16.492188 10.5625 Z M 16.492188 10.5625 " fill-opacity="1" fill-rule="evenodd"/><path fill="#000000" d="M 14.628906 5.035156 C 14.453125 3.765625 26.179688 2.773438 26.84375 3.378906 C 27.265625 3.765625 27.542969 4.441406 27.597656 4.523438 C 28.429688 5.792969 28.789062 8.882812 28.667969 9.003906 C 28.539062 9.128906 26.195312 7.671875 25.582031 7.679688 C 22.023438 7.710938 16.472656 8.75 16.0625 8.738281 C 15.148438 8.714844 14.09375 11.753906 13.878906 10.085938 C 13.699219 8.679688 14.53125 5.1875 14.628906 5.035156 Z M 14.628906 5.035156 " fill-opacity="1" fill-rule="evenodd"/><path fill="#000000" d="M 14.578125 8.992188 C 15.46875 11.550781 15.023438 28.019531 17.640625 29.300781 C 18.039062 29.496094 23.019531 29.316406 28.460938 28.703125 C 29.675781 28.566406 28.855469 24.398438 27.671875 14.347656 C 27.507812 12.945312 27.5 9.582031 26.089844 6.277344 C 25.867188 7.152344 25.917969 7.964844 25.539062 8.449219 C 24.882812 9.285156 17.949219 10.113281 17.332031 10.007812 C 15.5625 9.703125 15.355469 7.332031 14.660156 8.851562 Z M 14.578125 8.992188 " fill-opacity="1" fill-rule="evenodd"/><path fill="#37241f" d="M 15.273438 21.539062 C 16.371094 21.632812 15.613281 24.058594 15.660156 24.089844 C 16.660156 24.875 16.421875 27.308594 16.289062 30.742188 C 16.214844 32.707031 16.003906 36.257812 15.03125 36.644531 C 13.203125 37.371094 8.972656 39.074219 8.972656 35.296875 C 8.972656 32.742188 10.007812 30.875 9.625 27.925781 C 9.445312 26.53125 10.453125 25.289062 11.105469 23.871094 C 11.347656 23.34375 10.988281 21.609375 11.683594 21.222656 C 12.378906 20.832031 14.03125 21.429688 15.273438 21.539062 Z M 15.273438 21.539062 " fill-opacity="1" fill-rule="evenodd"/><path fill="#37241f" d="M 17.328125 36.773438 C 17.121094 35.765625 19.828125 35.765625 19.851562 35.71875 C 20.378906 34.601562 22.953125 34.136719 26.527344 33.292969 C 28.570312 32.8125 32.246094 31.496094 33.253906 31.707031 C 37.003906 32.5 37.585938 37.949219 30.261719 39.359375 C 27.585938 39.871094 28.421875 38.878906 25.488281 40.042969 C 24.101562 40.597656 22.539062 40.039062 20.898438 39.855469 C 20.285156 39.785156 18.601562 40.589844 18.007812 40.078125 C 17.414062 39.5625 17.5625 37.917969 17.328125 36.773438 Z M 17.328125 36.773438 " fill-opacity="1" fill-rule="evenodd"/></svg>