<svg xmlns="http://www.w3.org/2000/svg" xmlns:xlink="http://www.w3.org/1999/xlink" width="60" zoomAndPan="magnify" viewBox="0 0 45 44.999999" height="60" preserveAspectRatio="xMidYMid meet" version="1.0"><defs><clipPath id="f5d9ef3a18"><path d="M 9 19 L 37 19 L 37 41.875 L 9 41.875 Z M 9 19 " clip-rule="nonzero"/></clipPath><clipPath id="8bbe25656e"><path d="M 10 19 L 34 19 L 34 41.875 L 10 41.875 Z M 10 19 " clip-rule="nonzero"/></clipPath><clipPath id="7bc7e1eda4"><path d="M 10 3 L 37 3 L 37 41.875 L 10 41.875 Z M 10 3 " clip-rule="nonzero"/></clipPath><clipPath id="e7c901962d"><path d="M 12 11 L 15 11 L 15 14 L 12 14 Z M 12 11 " clip-rule="nonzero"/></clipPath><clipPath id="da28881646"><path d="M 9.144531 10.8125 L 14.421875 10.320312 L 14.984375 15.488281 L 9.710938 15.976562 Z M 9.144531 10.8125 " clip-rule="nonzero"/></clipPath><clipPath id="822c7562e1"><path d="M 9.640625 15.164062 C 9.71875 14.832031 10.542969 11.25 10.617188 11.011719 C 10.914062 10.085938 13.921875 10.964844 14.058594 11.242188 C 14.285156 11.703125 14.605469 11.550781 14.566406 12.050781 C 14.476562 13.265625 14.65625 13.335938 14.332031 13.667969 C 13.398438 14.617188 12.382812 14.867188 12.144531 15.46875 C 11.972656 15.902344 10.847656 16.054688 9.640625 15.164062 Z M 9.640625 15.164062 " clip-rule="evenodd"/></clipPath><clipPath id="d3fed1fdc2"><path d="M 11 12 L 13 12 L 13 15 L 11 15 Z M 11 12 " clip-rule="nonzero"/></clipPath><clipPath id="8250c466e8"><path d="M 9.144531 10.8125 L 14.421875 10.320312 L 14.984375 15.488281 L 9.710938 15.976562 Z M 9.144531 10.8125 " clip-rule="nonzero"/></clipPath><clipPath id="25a4c5817b"><path d="M 9.640625 15.164062 C 9.71875 14.832031 10.542969 11.25 10.617188 11.011719 C 10.914062 10.085938 13.921875 10.964844 14.058594 11.242188 C 14.285156 11.703125 14.605469 11.550781 14.566406 12.050781 C 14.476562 13.265625 14.65625 13.335938 14.332031 13.667969 C 13.398438 14.617188 12.382812 14.867188 12.144531 15.46875 C 11.972656 15.902344 10.847656 16.054688 9.640625 15.164062 Z M 9.640625 15.164062 " clip-rule="evenodd"/></clipPath><clipPath id="0b2c028cd7"><path d="M 10 11 L 13 11 L 13 14 L 10 14 Z M 10 11 " clip-rule="nonzero"/></clipPath><clipPath id="c02e791fb1"><path d="M 9.144531 10.8125 L 14.421875 10.320312 L 14.984375 15.488281 L 9.710938 15.976562 Z M 9.144531 10.8125 " clip-rule="nonzero"/></clipPath><clipPath id="fa50e0e291"><path d="M 9.640625 15.164062 C 9.71875 14.832031 10.542969 11.25 10.617188 11.011719 C 10.914062 10.085938 13.921875 10.964844 14.058594 11.242188 C 14.285156 11.703125 14.605469 11.550781 14.566406 12.050781 C 14.476562 13.265625 14.65625 13.335938 14.332031 13.667969 C 13.398438 14.617188 12.382812 14.867188 12.144531 15.46875 C 11.972656 15.902344 10.847656 16.054688 9.640625 15.164062 Z M 9.640625 15.164062 " clip-rule="evenodd"/></clipPath><clipPath id="45d2280d4a"><path d="M 11 11 L 14 11 L 14 13 L 11 13 Z M 11 11 " clip-rule="nonzero"/></clipPath><clipPath id="c49b4570f7"><path d="M 9.144531 10.8125 L 14.421875 10.320312 L 14.984375 15.488281 L 9.710938 15.976562 Z M 9.144531 10.8125 " clip-rule="nonzero"/></clipPath><clipPath id="43fc472fcc"><path d="M 9.640625 15.164062 C 9.71875 14.832031 10.542969 11.25 10.617188 11.011719 C 10.914062 10.085938 13.921875 10.964844 14.058594 11.242188 C 14.285156 11.703125 14.605469 11.550781 14.566406 12.050781 C 14.476562 13.265625 14.65625 13.335938 14.332031 13.667969 C 13.398438 14.617188 12.382812 14.867188 12.144531 15.46875 C 11.972656 15.902344 10.847656 16.054688 9.640625 15.164062 Z M 9.640625 15.164062 " clip-rule="evenodd"/></clipPath><clipPath id="a1add9e0a9"><path d="M 12 11 L 14 11 L 14 13 L 12 13 Z M 12 11 " clip-rule="nonzero"/></clipPath><clipPath id="bddcf268e9"><path d="M 9.144531 10.8125 L 14.421875 10.320312 L 14.984375 15.488281 L 9.710938 15.976562 Z M 9.144531 10.8125 " clip-rule="nonzero"/></clipPath><clipPath id="92fa7b1642"><path d="M 9.640625 15.164062 C 9.71875 14.832031 10.542969 11.25 10.617188 11.011719 C 10.914062 10.085938 13.921875 10.964844 14.058594 11.242188 C 14.285156 11.703125 14.605469 11.550781 14.566406 12.050781 C 14.476562 13.265625 14.65625 13.335938 14.332031 13.667969 C 13.398438 14.617188 12.382812 14.867188 12.144531 15.46875 C 11.972656 15.902344 10.847656 16.054688 9.640625 15.164062 Z M 9.640625 15.164062 " clip-rule="evenodd"/></clipPath><clipPath id="62710d43b8"><path d="M 35 18 L 36 18 L 36 20 L 35 20 Z M 35 18 " clip-rule="nonzero"/></clipPath><clipPath id="118af39428"><path d="M 35.613281 16.203125 L 39.957031 17.785156 L 37.816406 22.773438 L 33.472656 21.191406 Z M 35.613281 16.203125 " clip-rule="nonzero"/></clipPath><clipPath id="803649f935"><path d="M 37.804688 22.386719 C 39.53125 18.75 39.59375 18.753906 39.550781 18.417969 C 39.453125 17.664062 36.976562 16.644531 36.8125 16.664062 C 36.234375 16.738281 34.253906 17.800781 34.914062 18.707031 C 35.519531 19.542969 34.730469 19.804688 35.332031 20.652344 C 35.582031 21.007812 35.191406 21.414062 35.304688 21.664062 C 35.550781 22.214844 37.59375 22.371094 37.804688 22.386719 Z M 37.804688 22.386719 " clip-rule="evenodd"/></clipPath><clipPath id="062f1bac80"><path d="M 34 17 L 38 17 L 38 20 L 34 20 Z M 34 17 " clip-rule="nonzero"/></clipPath><clipPath id="06c9891779"><path d="M 35.613281 16.203125 L 39.957031 17.785156 L 37.816406 22.773438 L 33.472656 21.191406 Z M 35.613281 16.203125 " clip-rule="nonzero"/></clipPath><clipPath id="959fd06a93"><path d="M 37.804688 22.386719 C 39.53125 18.75 39.59375 18.753906 39.550781 18.417969 C 39.453125 17.664062 36.976562 16.644531 36.8125 16.664062 C 36.234375 16.738281 34.253906 17.800781 34.914062 18.707031 C 35.519531 19.542969 34.730469 19.804688 35.332031 20.652344 C 35.582031 21.007812 35.191406 21.414062 35.304688 21.664062 C 35.550781 22.214844 37.59375 22.371094 37.804688 22.386719 Z M 37.804688 22.386719 " clip-rule="evenodd"/></clipPath><clipPath id="c65e4e9aff"><path d="M 35 17 L 38 17 L 38 19 L 35 19 Z M 35 17 " clip-rule="nonzero"/></clipPath><clipPath id="9d1e01e45c"><path d="M 35.613281 16.203125 L 39.957031 17.785156 L 37.816406 22.773438 L 33.472656 21.191406 Z M 35.613281 16.203125 " clip-rule="nonzero"/></clipPath><clipPath id="4e0175189b"><path d="M 37.804688 22.386719 C 39.53125 18.75 39.59375 18.753906 39.550781 18.417969 C 39.453125 17.664062 36.976562 16.644531 36.8125 16.664062 C 36.234375 16.738281 34.253906 17.800781 34.914062 18.707031 C 35.519531 19.542969 34.730469 19.804688 35.332031 20.652344 C 35.582031 21.007812 35.191406 21.414062 35.304688 21.664062 C 35.550781 22.214844 37.59375 22.371094 37.804688 22.386719 Z M 37.804688 22.386719 " clip-rule="evenodd"/></clipPath><clipPath id="feb3bd53be"><path d="M 35 16 L 39 16 L 39 18 L 35 18 Z M 35 16 " clip-rule="nonzero"/></clipPath><clipPath id="bc09125ec5"><path d="M 35.613281 16.203125 L 39.957031 17.785156 L 37.816406 22.773438 L 33.472656 21.191406 Z M 35.613281 16.203125 " clip-rule="nonzero"/></clipPath><clipPath id="2901d6d395"><path d="M 37.804688 22.386719 C 39.53125 18.75 39.59375 18.753906 39.550781 18.417969 C 39.453125 17.664062 36.976562 16.644531 36.8125 16.664062 C 36.234375 16.738281 34.253906 17.800781 34.914062 18.707031 C 35.519531 19.542969 34.730469 19.804688 35.332031 20.652344 C 35.582031 21.007812 35.191406 21.414062 35.304688 21.664062 C 35.550781 22.214844 37.59375 22.371094 37.804688 22.386719 Z M 37.804688 22.386719 " clip-rule="evenodd"/></clipPath></defs><rect x="-4.5" width="54" fill="#ffffff" y="-4.5" height="53.999999" fill-opacity="1"/><rect x="-4.5" width="54" fill="#178fc7" y="-4.5" height="53.999999" fill-opacity="1"/><g clip-path="url(#f5d9ef3a18)"><path fill="#a58270" d="M 9.871094 28.613281 C 9.800781 29.867188 10.304688 37.464844 12.335938 39.417969 C 14.894531 41.875 18.121094 40.746094 22.195312 40.648438 C 23.144531 40.625 33.332031 41.304688 33.78125 41.148438 C 35.414062 40.589844 35.605469 38.316406 36.101562 33.574219 C 36.292969 31.734375 36.445312 27.492188 35.421875 25.222656 C 31.773438 17.15625 18.132812 18.382812 13.691406 23.21875 C 12.480469 24.535156 12.195312 24.949219 11.636719 26.195312 Z M 9.871094 28.613281 " fill-opacity="1" fill-rule="evenodd"/></g><g clip-path="url(#8bbe25656e)"><path fill="#37241f" d="M 17.476562 19.863281 L 10.101562 31.714844 L 14.324219 31.222656 L 13.136719 41.152344 L 33.78125 41.152344 L 30.683594 21.125 Z M 17.476562 19.863281 " fill-opacity="1" fill-rule="evenodd"/></g><g clip-path="url(#7bc7e1eda4)"><path fill="#a58270" d="M 10.546875 27.035156 C 11.097656 28.304688 10.652344 28.042969 12.265625 28.105469 C 15.835938 28.242188 14.722656 40.960938 19.664062 41.148438 C 21.578125 41.222656 26.792969 41.652344 27.320312 41.148438 C 31.539062 37.148438 30.867188 24.691406 32.332031 29.839844 C 32.53125 30.542969 34.597656 26.8125 35.714844 25.324219 C 36.058594 24.867188 36.542969 24.953125 36.308594 24.519531 C 35.234375 22.523438 33.589844 21.167969 33.453125 20.285156 C 33.296875 19.28125 33.101562 19.359375 32.332031 18.640625 C 31.527344 17.890625 30.9375 16.136719 30.859375 15.902344 C 28.894531 10.046875 29.925781 7.773438 27.378906 4.679688 C 25.953125 2.945312 23.128906 3.039062 22.707031 3.085938 C 16.597656 3.761719 17.140625 9.703125 17.109375 11.308594 C 17.058594 13.796875 15.964844 18.535156 15.835938 18.5625 C 13.164062 19.179688 10.5625 26.652344 10.546875 26.703125 Z M 10.546875 27.035156 " fill-opacity="1" fill-rule="evenodd"/></g><path fill="#fec3b1" d="M 9.640625 15.164062 C 9.71875 14.832031 10.542969 11.25 10.617188 11.011719 C 10.914062 10.085938 13.921875 10.964844 14.058594 11.242188 C 14.285156 11.703125 14.605469 11.550781 14.566406 12.050781 C 14.476562 13.265625 14.65625 13.335938 14.332031 13.667969 C 13.398438 14.617188 12.382812 14.867188 12.144531 15.46875 C 11.972656 15.902344 10.847656 16.054688 9.640625 15.164062 Z M 9.640625 15.164062 " fill-opacity="1" fill-rule="evenodd"/><g clip-path="url(#e7c901962d)"><g clip-path="url(#da28881646)"><g clip-path="url(#822c7562e1)"><path fill="#ec8479" d="M 14.515625 11.730469 C 14.539062 11.765625 14.527344 11.8125 14.496094 11.835938 C 14.460938 11.855469 14.414062 11.847656 14.394531 11.8125 C 14.34375 11.738281 14.304688 11.695312 14.261719 11.691406 C 14.234375 11.6875 14.214844 11.699219 14.191406 11.71875 C 14.15625 11.746094 14.125 11.789062 14.097656 11.839844 C 13.929688 12.128906 13.828125 12.664062 13.816406 12.722656 C 13.804688 12.789062 13.78125 12.832031 13.75 12.859375 C 13.71875 12.886719 13.679688 12.902344 13.628906 12.914062 C 13.460938 12.949219 13.132812 12.941406 12.574219 13.570312 C 12.546875 13.601562 12.5 13.601562 12.46875 13.574219 C 12.441406 13.546875 12.4375 13.5 12.464844 13.46875 C 12.980469 12.886719 13.316406 12.8125 13.511719 12.78125 C 13.550781 12.773438 13.582031 12.769531 13.605469 12.761719 C 13.625 12.757812 13.640625 12.753906 13.652344 12.742188 C 13.664062 12.730469 13.667969 12.714844 13.671875 12.691406 C 13.683594 12.628906 13.792969 12.0625 13.96875 11.757812 C 14.015625 11.675781 14.070312 11.613281 14.128906 11.578125 C 14.175781 11.546875 14.222656 11.535156 14.277344 11.539062 C 14.347656 11.550781 14.433594 11.601562 14.515625 11.730469 Z M 14.515625 11.730469 " fill-opacity="1" fill-rule="evenodd"/></g></g></g><g clip-path="url(#d3fed1fdc2)"><g clip-path="url(#8250c466e8)"><g clip-path="url(#25a4c5817b)"><path fill="#ec8479" d="M 12.335938 14.296875 C 12.339844 14.339844 12.308594 14.375 12.269531 14.378906 C 12.226562 14.382812 12.191406 14.351562 12.1875 14.308594 C 12.09375 13.371094 12.128906 13.269531 11.542969 12.410156 C 11.519531 12.378906 11.527344 12.328125 11.558594 12.304688 C 11.59375 12.285156 11.636719 12.292969 11.664062 12.328125 C 12.273438 13.21875 12.238281 13.320312 12.335938 14.296875 Z M 12.335938 14.296875 " fill-opacity="1" fill-rule="evenodd"/></g></g></g><g clip-path="url(#0b2c028cd7)"><g clip-path="url(#c02e791fb1)"><g clip-path="url(#fa50e0e291)"><path fill="#ec8479" d="M 12.109375 13.175781 C 12.066406 13.179688 12.03125 13.148438 12.027344 13.105469 C 12.027344 13.0625 12.058594 13.027344 12.097656 13.027344 C 12.136719 13.023438 12.191406 13.027344 12.246094 13.023438 C 12.289062 13.019531 12.328125 13.011719 12.363281 12.980469 C 12.402344 12.945312 12.425781 12.886719 12.4375 12.796875 C 12.449219 12.6875 12.4375 12.535156 12.394531 12.324219 C 12.390625 12.292969 12.371094 12.261719 12.34375 12.230469 C 12.289062 12.171875 12.210938 12.113281 12.117188 12.058594 C 11.726562 11.828125 11.101562 11.640625 11.015625 11.617188 C 10.976562 11.605469 10.953125 11.5625 10.964844 11.523438 C 10.976562 11.484375 11.015625 11.460938 11.054688 11.472656 C 11.144531 11.496094 11.785156 11.6875 12.1875 11.925781 C 12.296875 11.992188 12.390625 12.058594 12.449219 12.128906 C 12.5 12.183594 12.53125 12.242188 12.542969 12.296875 C 12.585938 12.527344 12.597656 12.695312 12.582031 12.816406 C 12.566406 12.957031 12.519531 13.039062 12.464844 13.09375 C 12.40625 13.148438 12.335938 13.167969 12.261719 13.175781 C 12.207031 13.179688 12.148438 13.175781 12.109375 13.175781 Z M 12.109375 13.175781 " fill-opacity="1" fill-rule="evenodd"/></g></g></g><g clip-path="url(#45d2280d4a)"><g clip-path="url(#c49b4570f7)"><g clip-path="url(#43fc472fcc)"><path fill="#ec8479" d="M 12.5 12.902344 C 12.464844 12.882812 12.449219 12.839844 12.464844 12.800781 C 12.484375 12.765625 12.527344 12.75 12.566406 12.769531 C 12.695312 12.835938 12.796875 12.84375 12.871094 12.804688 C 12.949219 12.769531 13 12.695312 13.035156 12.613281 C 13.117188 12.425781 13.125 12.195312 13.125 12.183594 C 13.132812 12.121094 13.113281 12.085938 13.046875 12.03125 C 12.898438 11.917969 12.578125 11.765625 11.9375 11.398438 C 11.902344 11.375 11.886719 11.332031 11.90625 11.292969 C 11.925781 11.257812 11.972656 11.246094 12.007812 11.265625 C 12.65625 11.636719 12.984375 11.796875 13.132812 11.914062 C 13.207031 11.972656 13.246094 12.023438 13.265625 12.078125 C 13.277344 12.117188 13.277344 12.15625 13.273438 12.207031 C 13.269531 12.21875 13.261719 12.472656 13.171875 12.679688 C 13.121094 12.792969 13.042969 12.894531 12.9375 12.945312 C 12.828125 12.996094 12.6875 12.996094 12.5 12.902344 Z M 12.5 12.902344 " fill-opacity="1" fill-rule="evenodd"/></g></g></g><g clip-path="url(#a1add9e0a9)"><g clip-path="url(#bddcf268e9)"><g clip-path="url(#92fa7b1642)"><path fill="#ec8479" d="M 13.105469 12.707031 C 13.066406 12.695312 13.042969 12.652344 13.050781 12.613281 C 13.0625 12.574219 13.105469 12.550781 13.144531 12.5625 C 13.183594 12.574219 13.441406 12.65625 13.617188 12.511719 C 13.695312 12.453125 13.753906 12.347656 13.777344 12.183594 C 13.804688 11.976562 13.726562 11.824219 13.566406 11.683594 C 13.390625 11.523438 13.117188 11.382812 12.773438 11.21875 C 12.738281 11.199219 12.71875 11.152344 12.738281 11.117188 C 12.753906 11.078125 12.796875 11.0625 12.835938 11.082031 C 13.191406 11.253906 13.476562 11.402344 13.664062 11.566406 C 13.867188 11.75 13.960938 11.945312 13.921875 12.210938 C 13.890625 12.421875 13.808594 12.554688 13.710938 12.632812 C 13.484375 12.816406 13.15625 12.722656 13.105469 12.707031 Z M 13.105469 12.707031 " fill-opacity="1" fill-rule="evenodd"/></g></g></g><path fill="#fec3b1" d="M 11.851562 8.566406 C 12.019531 8.578125 13.9375 8.710938 13.960938 8.609375 C 13.976562 8.519531 11.652344 7.015625 10.753906 7.675781 C 10.664062 7.742188 10.011719 8.441406 11.851562 8.566406 Z M 11.851562 8.566406 " fill-opacity="1" fill-rule="evenodd"/><path fill="#fec3b1" d="M 14.652344 8.339844 C 14.476562 8.167969 12.316406 6.046875 13.769531 5.480469 C 14.007812 5.386719 14.871094 5.226562 14.652344 8.339844 Z M 14.652344 8.339844 " fill-opacity="1" fill-rule="evenodd"/><path fill="#fec3b1" d="M 35.625 16.210938 C 35.457031 16.046875 33.921875 14.53125 34.507812 13.597656 C 34.628906 13.402344 35.378906 13.292969 35.625 16.210938 Z M 35.625 16.210938 " fill-opacity="1" fill-rule="evenodd"/><path fill="#fec3b1" d="M 36.625 15.988281 C 36.613281 15.738281 36.535156 13.855469 37.644531 12.972656 C 38.238281 12.496094 38.570312 12.914062 38.550781 13.277344 C 38.523438 13.875 36.804688 15.789062 36.625 15.988281 Z M 36.625 15.988281 " fill-opacity="1" fill-rule="evenodd"/><path fill="#fec3b1" d="M 37.804688 22.386719 C 39.53125 18.75 39.59375 18.753906 39.550781 18.417969 C 39.453125 17.664062 36.976562 16.644531 36.8125 16.664062 C 36.234375 16.738281 34.253906 17.800781 34.914062 18.707031 C 35.519531 19.542969 34.730469 19.804688 35.332031 20.652344 C 35.582031 21.007812 35.191406 21.414062 35.304688 21.664062 C 35.550781 22.214844 37.59375 22.371094 37.804688 22.386719 Z M 37.804688 22.386719 " fill-opacity="1" fill-rule="evenodd"/><g clip-path="url(#62710d43b8)"><g clip-path="url(#118af39428)"><g clip-path="url(#803649f935)"><path fill="#ec8479" d="M 35.195312 19.859375 C 35.183594 19.902344 35.136719 19.921875 35.097656 19.910156 C 35.058594 19.898438 35.035156 19.859375 35.046875 19.820312 C 35.121094 19.605469 35.144531 19.613281 35.558594 18.191406 C 35.566406 18.152344 35.613281 18.125 35.652344 18.136719 C 35.695312 18.144531 35.71875 18.1875 35.707031 18.226562 C 35.292969 19.65625 35.269531 19.648438 35.195312 19.859375 Z M 35.195312 19.859375 " fill-opacity="1" fill-rule="evenodd"/></g></g></g><g clip-path="url(#062f1bac80)"><g clip-path="url(#06c9891779)"><g clip-path="url(#959fd06a93)"><path fill="#ec8479" d="M 35.246094 18.96875 C 35.28125 18.992188 35.285156 19.039062 35.257812 19.070312 C 35.234375 19.105469 35.183594 19.109375 35.148438 19.085938 C 34.710938 18.773438 34.542969 18.082031 35.113281 17.691406 C 35.320312 17.546875 35.582031 17.570312 35.859375 17.695312 C 36.238281 17.859375 36.65625 18.207031 37.027344 18.453125 C 37.058594 18.476562 37.066406 18.523438 37.042969 18.558594 C 37.015625 18.589844 36.96875 18.601562 36.933594 18.578125 C 36.570312 18.332031 36.160156 17.992188 35.789062 17.828125 C 35.570312 17.734375 35.367188 17.695312 35.199219 17.808594 C 34.726562 18.132812 34.882812 18.707031 35.246094 18.96875 Z M 35.246094 18.96875 " fill-opacity="1" fill-rule="evenodd"/></g></g></g><g clip-path="url(#c65e4e9aff)"><g clip-path="url(#9d1e01e45c)"><g clip-path="url(#4e0175189b)"><path fill="#ec8479" d="M 35.285156 17.625 C 35.261719 17.660156 35.214844 17.667969 35.175781 17.648438 C 35.140625 17.625 35.132812 17.578125 35.15625 17.542969 C 35.3125 17.320312 35.488281 17.199219 35.671875 17.144531 C 35.945312 17.0625 36.238281 17.132812 36.507812 17.265625 C 36.929688 17.46875 37.296875 17.828125 37.425781 17.917969 C 37.460938 17.941406 37.464844 17.988281 37.4375 18.023438 C 37.414062 18.054688 37.363281 18.0625 37.328125 18.039062 C 37.203125 17.949219 36.847656 17.597656 36.433594 17.394531 C 36.199219 17.285156 35.949219 17.214844 35.714844 17.285156 C 35.5625 17.332031 35.414062 17.4375 35.285156 17.625 Z M 35.285156 17.625 " fill-opacity="1" fill-rule="evenodd"/></g></g></g><g clip-path="url(#feb3bd53be)"><g clip-path="url(#bc09125ec5)"><g clip-path="url(#2901d6d395)"><path fill="#ec8479" d="M 36.097656 17.128906 C 36.074219 17.164062 36.023438 17.171875 35.988281 17.152344 C 35.953125 17.128906 35.945312 17.085938 35.96875 17.050781 C 36.234375 16.664062 36.652344 16.683594 37.0625 16.859375 C 37.632812 17.101562 38.179688 17.648438 38.183594 17.652344 C 38.214844 17.679688 38.214844 17.726562 38.1875 17.757812 C 38.15625 17.789062 38.105469 17.789062 38.074219 17.761719 C 38.070312 17.761719 37.546875 17.230469 36.996094 16.996094 C 36.660156 16.851562 36.316406 16.8125 36.097656 17.128906 Z M 36.097656 17.128906 " fill-opacity="1" fill-rule="evenodd"/></g></g></g><path fill="#37241f" d="M 35.542969 21.148438 C 34.601562 20.871094 34.308594 23.09375 34.261719 23.109375 C 33.136719 23.421875 32.414062 25.484375 31.222656 28.328125 C 30.539062 29.957031 29.734375 32.828125 30.054688 33.652344 C 31.222656 36.667969 35.914062 34.332031 36.613281 32.046875 C 37.277344 29.863281 36.351562 30.480469 37.785156 28.199219 C 38.460938 27.121094 38.101562 25.777344 38.101562 24.410156 C 38.101562 23.898438 39.050781 22.601562 38.625 22.058594 C 38.199219 21.515625 36.613281 21.464844 35.542969 21.148438 Z M 35.542969 21.148438 " fill-opacity="1" fill-rule="evenodd"/><path fill="#37241f" d="M 12.457031 15.179688 C 13.511719 15.191406 12.84375 17.453125 12.886719 17.480469 C 13.871094 18.125 13.695312 20.359375 13.652344 23.496094 C 13.628906 25.292969 12.691406 28.996094 12.492188 29.851562 C 11.910156 32.339844 8.28125 32.285156 6.921875 30 C 6.183594 28.757812 6.652344 27.09375 6.703125 25.507812 C 6.777344 23.179688 7.632812 24.058594 7.195312 21.394531 C 6.988281 20.136719 7.925781 18.933594 8.515625 17.59375 C 8.734375 17.097656 8.351562 15.542969 9.007812 15.140625 C 9.664062 14.738281 11.265625 15.164062 12.457031 15.179688 Z M 12.457031 15.179688 " fill-opacity="1" fill-rule="evenodd"/><path fill="#fec3b1" d="M 18.886719 11.613281 C 18.855469 11.207031 18.957031 9.863281 19.726562 8.511719 C 20.195312 7.683594 21.292969 6.445312 21.652344 6.515625 C 23.839844 6.925781 24.695312 7.707031 25.167969 8.070312 C 25.726562 8.496094 26.769531 9.757812 27.09375 10.949219 C 27.09375 10.949219 27.453125 12.285156 27.269531 12.792969 C 26.691406 14.414062 25.265625 15.515625 23.910156 15.773438 C 22.019531 16.136719 20.339844 14.992188 19.539062 14.160156 C 19.199219 13.808594 18.886719 11.613281 18.886719 11.613281 Z M 18.886719 11.613281 " fill-opacity="1" fill-rule="evenodd"/><path fill="#000000" d="M 17.226562 6.679688 C 17.070312 5.550781 27.59375 4.671875 28.1875 5.210938 C 28.566406 5.554688 28.816406 6.152344 28.863281 6.226562 C 29.613281 7.351562 29.933594 10.09375 29.824219 10.199219 C 29.710938 10.3125 27.605469 9.019531 27.054688 9.023438 C 23.863281 9.050781 18.882812 9.976562 18.511719 9.964844 C 17.691406 9.945312 16.746094 12.640625 16.554688 11.160156 C 16.394531 9.914062 17.136719 6.8125 17.226562 6.679688 Z M 17.226562 6.679688 " fill-opacity="1" fill-rule="evenodd"/><path fill="#000000" d="M 17.480469 10.597656 C 18.28125 12.871094 15.132812 27.246094 17.480469 28.386719 C 17.839844 28.558594 24.050781 28.296875 28.933594 27.753906 C 30.027344 27.628906 29.996094 23.859375 28.933594 14.941406 C 28.785156 13.699219 28.777344 10.714844 27.511719 7.78125 C 27.3125 8.558594 27.359375 9.277344 27.015625 9.710938 C 26.429688 10.449219 19.914062 11.039062 19.359375 10.945312 C 17.773438 10.675781 17.878906 8.71875 17.253906 10.066406 Z M 17.480469 10.597656 " fill-opacity="1" fill-rule="evenodd"/></svg>