<svg xmlns="http://www.w3.org/2000/svg" xmlns:xlink="http://www.w3.org/1999/xlink" width="60" zoomAndPan="magnify" viewBox="0 0 45 44.999999" height="60" preserveAspectRatio="xMidYMid meet" version="1.0"><defs><clipPath id="e579b97eee"><path d="M 1.050781 4.5 L 39 4.5 L 39 41.25 L 1.050781 41.25 Z M 1.050781 4.5 " clip-rule="nonzero"/></clipPath></defs><rect x="-4.5" width="54" fill="#ffffff" y="-4.5" height="53.999999" fill-opacity="1"/><rect x="-4.5" width="54" fill="#178fc7" y="-4.5" height="53.999999" fill-opacity="1"/><g clip-path="url(#e579b97eee)"><path fill="#edf4e0" d="M 38.078125 23.019531 C 38.078125 33.246094 29.789062 41.535156 19.566406 41.535156 C 9.339844 41.535156 1.050781 33.246094 1.050781 23.019531 C 1.050781 12.796875 9.339844 4.507812 19.566406 4.507812 C 29.789062 4.507812 38.078125 12.796875 38.078125 23.019531 " fill-opacity="1" fill-rule="nonzero"/><path fill="#7c4d4d" d="M 19.566406 4.507812 C 9.339844 4.507812 1.050781 12.796875 1.050781 23.019531 C 1.050781 33.246094 9.339844 41.535156 19.566406 41.535156 C 29.789062 41.535156 38.078125 33.246094 38.078125 23.019531 C 38.078125 12.796875 29.789062 4.507812 19.566406 4.507812 Z M 19.566406 8.210938 C 27.730469 8.210938 34.375 14.855469 34.375 23.019531 C 34.375 31.1875 27.730469 37.832031 19.566406 37.832031 C 11.398438 37.832031 4.753906 31.1875 4.753906 23.019531 C 4.753906 14.855469 11.398438 8.210938 19.566406 8.210938 " fill-opacity="1" fill-rule="nonzero"/></g><path fill="#7c4d4d" d="M 19.566406 11.914062 C 13.429688 11.914062 8.457031 16.886719 8.457031 23.019531 C 8.457031 29.15625 13.429688 34.128906 19.566406 34.128906 C 25.699219 34.128906 30.671875 29.15625 30.671875 23.019531 C 30.671875 16.886719 25.699219 11.914062 19.566406 11.914062 Z M 19.566406 15.617188 C 23.648438 15.617188 26.96875 18.9375 26.96875 23.019531 C 26.96875 27.105469 23.648438 30.425781 19.566406 30.425781 C 15.480469 30.425781 12.160156 27.105469 12.160156 23.019531 C 12.160156 18.9375 15.480469 15.617188 19.566406 15.617188 " fill-opacity="1" fill-rule="nonzero"/><path fill="#7c4d4d" d="M 23.265625 23.019531 C 23.265625 25.066406 21.609375 26.722656 19.5625 26.722656 C 17.519531 26.722656 15.863281 25.066406 15.863281 23.019531 C 15.863281 20.976562 17.519531 19.320312 19.5625 19.320312 C 21.609375 19.320312 23.265625 20.976562 23.265625 23.019531 " fill-opacity="1" fill-rule="nonzero"/><path fill="#c07055" d="M 40.15625 11.304688 C 41.425781 13.496094 47.140625 12.570312 42.125 15.464844 C 37.109375 18.363281 32.015625 18.929688 30.746094 16.738281 C 29.480469 14.542969 32.519531 10.414062 37.535156 7.519531 C 42.554688 4.621094 38.890625 9.109375 40.15625 11.304688 " fill-opacity="1" fill-rule="nonzero"/><path fill="#fffbfd" d="M 19.566406 23.933594 C 19.308594 23.933594 19.0625 23.800781 18.921875 23.5625 C 18.71875 23.207031 18.839844 22.753906 19.195312 22.550781 L 40.355469 10.332031 C 40.710938 10.128906 41.164062 10.25 41.367188 10.605469 C 41.574219 10.960938 41.453125 11.410156 41.097656 11.617188 L 19.933594 23.835938 C 19.816406 23.902344 19.691406 23.933594 19.566406 23.933594 " fill-opacity="1" fill-rule="nonzero"/></svg>