<svg xmlns="http://www.w3.org/2000/svg" xmlns:xlink="http://www.w3.org/1999/xlink" width="60" zoomAndPan="magnify" viewBox="0 0 45 44.999999" height="60" preserveAspectRatio="xMidYMid meet" version="1.0"><path fill="#7c4d4d" d="M 28.1875 15.113281 C 28.089844 14.832031 27.996094 14.625 27.945312 14.410156 C 27.707031 13.398438 28.367188 12.671875 29.398438 12.804688 C 30.328125 12.921875 31.15625 13.953125 30.40625 14.71875 C 29.929688 15.199219 29.785156 14.886719 30.171875 15.933594 C 33.921875 26.027344 33.519531 25.785156 34.203125 25.253906 C 34.753906 24.824219 36.273438 23.339844 37.8125 21.945312 C 40.933594 19.117188 42.019531 19.566406 41.925781 18.351562 C 41.832031 17.078125 42.5625 16.148438 43.628906 16.511719 C 44.8125 16.914062 45 18.390625 43.878906 19.191406 C 42.761719 19.988281 44.410156 17.296875 39.613281 32.285156 C 38.46875 35.871094 39.628906 34.246094 28.800781 33.042969 C 25.863281 32.714844 15.003906 30.96875 11.011719 31.503906 C 5.382812 32.257812 4.753906 33.429688 4.382812 31.890625 C 1.5625 20.164062 2.21875 18.691406 1.3125 18.246094 C 0 17.605469 0.15625 15.058594 2.035156 15.464844 C 2.921875 15.65625 3.234375 16.214844 3.167969 16.796875 C 2.996094 18.21875 1.800781 16.59375 10.199219 22.550781 C 11.484375 23.460938 10.941406 23.574219 13.230469 16.867188 C 13.730469 15.40625 14.160156 14.472656 14.464844 13.449219 C 11.960938 10.875 15.226562 9.128906 16.476562 11.050781 C 16.949219 11.777344 16.539062 12.214844 16.128906 12.828125 C 16.8125 14.648438 17.09375 14.445312 20.609375 23.105469 C 21.191406 24.546875 21.074219 24.148438 28.1875 15.113281 Z M 14.894531 11.160156 C 14.261719 11.453125 14.546875 12.292969 14.878906 12.421875 C 15.519531 12.660156 16.277344 11.125 14.894531 11.160156 Z M 43.695312 17.941406 C 43.785156 17.503906 43.082031 17.144531 42.898438 17.671875 C 42.464844 18.933594 43.53125 18.753906 43.695312 17.941406 Z M 1.390625 16.785156 C 1.402344 17.292969 1.835938 17.460938 2.003906 17.21875 C 2.652344 16.292969 1.375 16.082031 1.390625 16.785156 Z M 29.664062 14.144531 C 29.792969 13.742188 28.992188 13.480469 28.832031 13.941406 C 28.664062 14.425781 29.503906 14.664062 29.664062 14.144531 Z M 29.664062 14.144531 " fill-opacity="1" fill-rule="nonzero"/><path fill="#ffffff" d="M 32.878906 27.554688 C 42.230469 23.363281 41.792969 21.769531 37.214844 31.960938 C 36.730469 33.046875 20.980469 30.796875 6.890625 29.90625 C 6.355469 29.871094 6.328125 29.570312 6.222656 28.996094 C 4.410156 19.449219 3.757812 20.441406 10.414062 25.761719 C 10.75 25.632812 10.386719 25.992188 15.335938 19.632812 C 16.429688 18.226562 16.140625 18.507812 20.253906 24.976562 C 20.847656 25.90625 20.71875 25.910156 21.542969 25.339844 C 29.460938 19.8125 28.824219 19.703125 29.65625 21.324219 C 33.136719 28.105469 32.140625 26.210938 32.878906 27.554688 Z M 7.257812 28.796875 C 7.613281 29.011719 35.074219 31.4375 36.335938 31.359375 C 36.519531 31.140625 36.222656 31.796875 38.757812 26.179688 C 38.785156 26.121094 38.746094 26.03125 38.734375 25.898438 C 32.378906 28.65625 32.75 29.496094 31.855469 27.753906 C 28.597656 21.410156 28.859375 21.804688 28.574219 21.652344 C 27.582031 22.296875 29.261719 21.140625 21.648438 26.460938 C 20.171875 27.488281 20.777344 27.582031 16.660156 21.140625 C 16.101562 20.265625 16.136719 20.195312 15.488281 21.027344 C 10.332031 27.652344 10.929688 27.484375 9.734375 26.488281 C 6.089844 23.449219 6.921875 24.082031 6.328125 23.773438 C 6.320312 24.507812 6.984375 28.042969 7.257812 28.796875 Z M 7.257812 28.796875 " fill-opacity="1" fill-rule="nonzero"/></svg>