<svg xmlns="http://www.w3.org/2000/svg" xmlns:xlink="http://www.w3.org/1999/xlink" width="60" zoomAndPan="magnify" viewBox="0 0 45 44.999999" height="60" preserveAspectRatio="xMidYMid meet" version="1.0"><defs><clipPath id="35a9140b61"><path d="M 18 40 L 27 40 L 27 44.722656 L 18 44.722656 Z M 18 40 " clip-rule="nonzero"/></clipPath><clipPath id="722ebe90e1"><path d="M 2.648438 15 L 10 15 L 10 20 L 2.648438 20 Z M 2.648438 15 " clip-rule="nonzero"/></clipPath><clipPath id="94cc7e60e1"><path d="M 21 0.472656 L 23 0.472656 L 23 8 L 21 8 Z M 21 0.472656 " clip-rule="nonzero"/></clipPath><clipPath id="de67057896"><path d="M 35 16 L 42.398438 16 L 42.398438 20 L 35 20 Z M 35 16 " clip-rule="nonzero"/></clipPath></defs><path fill="#7c4d4d" d="M 26.425781 38.53125 L 18.195312 38.53125 L 18.195312 39.234375 C 18.195312 39.34375 18.195312 39.507812 18.195312 39.667969 C 18.195312 39.667969 18.195312 39.722656 18.195312 39.722656 L 26.425781 39.722656 C 26.425781 39.34375 26.425781 39.019531 26.425781 38.640625 C 26.425781 38.585938 26.425781 38.53125 26.425781 38.53125 Z M 26.425781 38.53125 " fill-opacity="1" fill-rule="nonzero"/><g clip-path="url(#35a9140b61)"><path fill="#7c4d4d" d="M 18.355469 41.078125 C 18.679688 41.890625 19.492188 42.484375 20.578125 42.757812 C 20.578125 43.027344 20.683594 43.460938 20.957031 43.839844 C 21.28125 44.164062 21.714844 44.382812 22.253906 44.382812 C 22.796875 44.382812 23.285156 44.21875 23.554688 43.894531 C 23.878906 43.570312 23.988281 43.136719 24.042969 42.863281 C 24.261719 42.808594 24.476562 42.757812 24.691406 42.703125 C 25.34375 42.429688 25.832031 41.945312 26.15625 41.292969 C 26.265625 41.078125 26.316406 40.859375 26.371094 40.644531 L 18.195312 40.644531 C 18.246094 40.699219 18.246094 40.914062 18.355469 41.078125 Z M 22.039062 42.917969 C 22.203125 42.917969 22.308594 42.917969 22.472656 42.917969 L 22.742188 42.917969 C 22.90625 42.917969 23.066406 42.917969 23.230469 42.917969 C 23.175781 43.027344 23.121094 43.136719 23.066406 43.242188 C 22.90625 43.40625 22.6875 43.515625 22.363281 43.515625 C 22.039062 43.515625 21.824219 43.460938 21.714844 43.296875 C 21.605469 43.1875 21.605469 43.082031 21.550781 42.917969 C 21.660156 42.917969 21.824219 42.917969 22.039062 42.917969 Z M 22.039062 42.917969 " fill-opacity="1" fill-rule="nonzero"/></g><path fill="#7c4d4d" d="M 18.195312 36.851562 L 18.195312 37.664062 L 26.425781 37.664062 L 26.425781 36.851562 Z M 18.195312 36.851562 " fill-opacity="1" fill-rule="nonzero"/><g clip-path="url(#722ebe90e1)"><path fill="#7c4d4d" d="M 8.660156 17.675781 L 3.894531 16 C 3.460938 15.835938 2.972656 16.105469 2.808594 16.539062 C 2.648438 16.972656 2.917969 17.460938 3.351562 17.625 L 8.117188 19.300781 C 8.226562 19.355469 8.28125 19.355469 8.390625 19.355469 C 8.769531 19.355469 9.09375 19.140625 9.203125 18.761719 C 9.363281 18.273438 9.148438 17.785156 8.660156 17.675781 Z M 8.660156 17.675781 " fill-opacity="1" fill-rule="nonzero"/></g><path fill="#7c4d4d" d="M 12.125 10.691406 C 12.289062 10.90625 12.507812 10.960938 12.777344 10.960938 C 12.992188 10.960938 13.15625 10.90625 13.320312 10.746094 C 13.699219 10.417969 13.699219 9.878906 13.425781 9.550781 L 10.121094 5.707031 C 9.796875 5.328125 9.257812 5.328125 8.929688 5.597656 C 8.550781 5.921875 8.550781 6.464844 8.824219 6.789062 Z M 12.125 10.691406 " fill-opacity="1" fill-rule="nonzero"/><g clip-path="url(#94cc7e60e1)"><path fill="#7c4d4d" d="M 22.09375 7.441406 C 22.582031 7.441406 22.960938 7.0625 22.960938 6.574219 L 22.90625 1.480469 C 22.90625 0.996094 22.527344 0.617188 22.039062 0.617188 C 21.550781 0.617188 21.171875 0.996094 21.171875 1.480469 L 21.226562 6.574219 C 21.226562 7.0625 21.605469 7.441406 22.09375 7.441406 Z M 22.09375 7.441406 " fill-opacity="1" fill-rule="nonzero"/></g><path fill="#7c4d4d" d="M 35.417969 5.542969 C 35.039062 5.273438 34.496094 5.328125 34.226562 5.707031 L 31.140625 9.769531 C 30.867188 10.148438 30.921875 10.691406 31.300781 10.960938 C 31.464844 11.070312 31.625 11.125 31.84375 11.125 C 32.113281 11.125 32.332031 11.015625 32.546875 10.796875 L 35.632812 6.734375 C 35.851562 6.355469 35.796875 5.816406 35.417969 5.542969 Z M 35.417969 5.542969 " fill-opacity="1" fill-rule="nonzero"/><g clip-path="url(#de67057896)"><path fill="#7c4d4d" d="M 42.242188 16.917969 C 42.132812 16.484375 41.648438 16.160156 41.214844 16.269531 L 36.285156 17.515625 C 35.851562 17.625 35.527344 18.109375 35.632812 18.542969 C 35.742188 18.921875 36.066406 19.195312 36.445312 19.195312 C 36.5 19.195312 36.609375 19.195312 36.664062 19.195312 L 41.59375 17.949219 C 42.082031 17.839844 42.351562 17.40625 42.242188 16.917969 Z M 42.242188 16.917969 " fill-opacity="1" fill-rule="nonzero"/></g><path fill="#7c4d4d" d="M 22.527344 11.230469 C 16.460938 11.230469 11.476562 16.214844 11.476562 22.28125 C 11.476562 25.421875 12.832031 28.402344 15.160156 30.515625 C 15.160156 30.515625 15.214844 30.570312 15.214844 30.570312 C 15.214844 30.570312 16.027344 31.164062 15.917969 32.195312 C 15.917969 32.410156 15.863281 32.574219 15.808594 32.789062 C 15.648438 33.710938 15.484375 34.902344 16.242188 35.769531 L 21.335938 35.769531 C 21.390625 35.714844 22.796875 34.144531 22.039062 30.460938 C 21.984375 30.136719 22.203125 29.808594 22.527344 29.703125 C 22.851562 29.648438 23.230469 29.863281 23.285156 30.191406 C 23.878906 33.007812 23.339844 34.847656 22.796875 35.824219 L 28.375 35.824219 C 29.1875 35.066406 29.515625 33.925781 29.242188 32.464844 C 28.972656 31.054688 30 30.40625 30.109375 30.296875 C 30.164062 30.242188 30.21875 30.191406 30.273438 30.136719 C 32.382812 28.023438 33.523438 25.261719 33.523438 22.335938 C 33.578125 16.160156 28.59375 11.230469 22.527344 11.230469 Z M 22.148438 18.816406 C 22.09375 18.761719 21.984375 18.761719 21.875 18.816406 C 20.847656 19.085938 20.25 17.949219 20.199219 17.894531 C 20.089844 17.675781 19.820312 17.625 19.601562 17.730469 C 19.386719 17.839844 19.332031 18.109375 19.4375 18.328125 C 19.710938 18.871094 20.46875 19.734375 21.550781 19.734375 C 21.714844 19.734375 21.875 19.734375 22.09375 19.679688 C 22.09375 19.679688 22.09375 19.679688 22.148438 19.679688 L 22.148438 29.269531 C 21.824219 29.539062 20.792969 30.242188 19.925781 29.863281 C 18.898438 29.378906 18.898438 28.238281 18.898438 28.1875 C 18.898438 28.1875 18.898438 28.132812 18.898438 28.132812 L 20.199219 26.398438 C 20.414062 26.128906 20.902344 26.398438 20.902344 26.398438 C 21.117188 26.507812 21.390625 26.453125 21.496094 26.234375 C 21.605469 26.019531 21.550781 25.75 21.335938 25.640625 C 21.0625 25.476562 20.632812 25.316406 20.199219 25.421875 C 20.144531 24.882812 19.925781 24.230469 19.546875 23.960938 C 19.386719 23.796875 19.113281 23.851562 18.953125 24.070312 C 18.789062 24.285156 18.84375 24.503906 19.058594 24.664062 C 19.277344 24.828125 19.386719 25.53125 19.4375 26.019531 L 18.140625 27.699219 C 18.140625 27.753906 18.085938 27.753906 18.085938 27.804688 C 17.761719 27.804688 17.21875 27.753906 16.839844 27.101562 C 16.296875 26.074219 16.730469 25.097656 16.785156 25.042969 C 16.894531 24.828125 16.785156 24.609375 16.621094 24.503906 C 16.136719 24.230469 15.59375 23.742188 15.703125 22.445312 C 15.757812 21.523438 16.675781 20.925781 17 20.710938 C 17.488281 20.765625 18.410156 21.035156 18.84375 21.523438 C 18.464844 21.792969 18.246094 22.117188 18.085938 22.445312 C 17.976562 22.660156 18.085938 22.929688 18.300781 22.984375 C 18.355469 23.039062 18.410156 23.039062 18.464844 23.039062 C 18.625 23.039062 18.789062 22.929688 18.84375 22.824219 C 18.898438 22.714844 19.386719 21.738281 20.359375 22.117188 C 20.578125 22.226562 20.847656 22.117188 20.902344 21.902344 C 21.011719 21.6875 20.902344 21.414062 20.683594 21.359375 C 20.304688 21.199219 19.980469 21.199219 19.65625 21.253906 C 19.058594 20.332031 17.597656 20.0625 17.109375 19.953125 C 17 19.789062 16.730469 19.410156 17.054688 18.542969 C 17.488281 17.40625 18.898438 17.296875 18.953125 17.296875 C 19.113281 17.296875 19.277344 17.191406 19.332031 17.027344 C 19.65625 16.214844 20.144531 15.78125 20.632812 15.621094 C 21.226562 15.457031 21.875 15.78125 22.148438 16 Z M 29.621094 22.984375 C 29.566406 23.203125 29.460938 23.417969 29.296875 23.691406 C 29.1875 23.796875 28.703125 24.070312 28.269531 24.230469 C 28.050781 24.285156 27.941406 24.449219 27.941406 24.609375 C 27.941406 24.828125 28.105469 25.042969 28.214844 25.261719 C 28.324219 25.421875 28.429688 25.585938 28.484375 25.695312 C 28.59375 26.179688 28.484375 26.722656 28.214844 27.101562 C 27.996094 27.425781 27.617188 27.589844 27.238281 27.644531 C 27.128906 27.644531 27.078125 27.644531 27.023438 27.644531 C 26.96875 27.15625 26.75 26.507812 26.15625 26.074219 C 26.316406 25.800781 26.480469 25.53125 26.644531 25.152344 C 26.75 24.9375 26.644531 24.664062 26.425781 24.609375 C 26.210938 24.503906 25.9375 24.609375 25.886719 24.828125 C 25.34375 26.019531 24.910156 26.289062 24.640625 26.398438 C 24.421875 26.453125 24.3125 26.398438 24.261719 26.398438 C 24.042969 26.289062 23.828125 26.34375 23.664062 26.5625 C 23.554688 26.777344 23.609375 27.046875 23.828125 27.15625 C 23.878906 27.15625 24.097656 27.320312 24.421875 27.320312 C 24.53125 27.320312 24.691406 27.320312 24.855469 27.265625 C 25.125 27.15625 25.34375 26.992188 25.613281 26.777344 C 26.265625 27.210938 26.210938 27.914062 26.210938 28.023438 C 26.210938 28.078125 26.210938 28.132812 26.210938 28.132812 C 26.101562 28.292969 26.046875 28.457031 25.9375 28.617188 C 25.667969 29.105469 25.558594 29.429688 25.019531 29.648438 C 24.207031 30.027344 23.394531 29.429688 23.066406 29.214844 L 23.066406 23.527344 C 23.609375 24.285156 24.207031 24.664062 24.910156 24.664062 C 24.964844 24.664062 24.964844 24.664062 25.019531 24.664062 C 25.179688 24.664062 25.289062 24.554688 25.34375 24.449219 C 25.398438 24.339844 25.453125 24.175781 25.34375 24.070312 C 25.34375 24.070312 24.800781 22.824219 25.289062 22.117188 C 25.453125 21.902344 25.398438 21.6875 25.179688 21.523438 C 24.964844 21.359375 24.746094 21.414062 24.585938 21.632812 C 24.097656 22.28125 24.152344 23.09375 24.3125 23.691406 C 23.71875 23.363281 23.394531 22.550781 23.230469 22.226562 L 23.175781 22.117188 C 23.121094 21.957031 23.066406 21.902344 23.015625 21.902344 L 23.015625 15.78125 C 23.773438 14.914062 24.800781 15.402344 24.855469 15.457031 C 25.503906 15.890625 25.667969 16.378906 25.503906 17.027344 C 25.453125 17.246094 25.558594 17.460938 25.722656 17.515625 C 25.886719 17.625 26.15625 17.570312 26.265625 17.40625 C 26.371094 17.246094 26.589844 17.191406 26.75 17.191406 C 27.347656 17.246094 27.996094 17.949219 28.160156 18.542969 C 28.214844 18.761719 28.214844 19.519531 28.160156 19.898438 C 27.671875 19.789062 27.023438 19.789062 26.535156 20.113281 C 26.046875 19.628906 25.453125 19.464844 25.398438 19.410156 C 25.179688 19.355469 24.910156 19.464844 24.855469 19.679688 C 24.800781 19.898438 24.910156 20.167969 25.125 20.222656 C 25.125 20.222656 25.777344 20.441406 26.15625 20.980469 C 26.316406 21.199219 26.371094 21.414062 26.425781 21.632812 C 26.425781 21.847656 26.644531 22.011719 26.859375 22.011719 C 26.859375 22.011719 26.859375 22.011719 26.914062 22.011719 C 27.128906 22.011719 27.347656 21.792969 27.292969 21.578125 C 27.292969 21.304688 27.183594 21.035156 27.078125 20.765625 C 27.402344 20.601562 27.941406 20.65625 28.160156 20.765625 C 28.375 20.925781 28.917969 21.46875 28.972656 21.523438 C 29.515625 22.117188 29.730469 22.550781 29.621094 22.984375 Z M 29.621094 22.984375 " fill-opacity="1" fill-rule="nonzero"/></svg>