<svg xmlns="http://www.w3.org/2000/svg" xmlns:xlink="http://www.w3.org/1999/xlink" width="60" zoomAndPan="magnify" viewBox="0 0 45 44.999999" height="60" preserveAspectRatio="xMidYMid meet" version="1.0"><defs><clipPath id="eca6f71bd1"><path d="M 15 18 L 19 18 L 19 22 L 15 22 Z M 15 18 " clip-rule="nonzero"/></clipPath><clipPath id="a9ab79e467"><path d="M 12.976562 19.179688 L 19.566406 17.011719 L 22.777344 25.5625 L 16.191406 27.730469 Z M 12.976562 19.179688 " clip-rule="nonzero"/></clipPath><clipPath id="dd45ae7fc9"><path d="M 14.945312 23.988281 C 15.457031 23.585938 15.816406 22.980469 15.914062 21.320312 C 16.035156 19.316406 15.726562 18.875 15.601562 18.699219 C 15.175781 18.085938 16.847656 17.875 17.234375 19.867188 C 17.257812 19.976562 17.484375 20.855469 17.507812 20.84375 C 17.535156 20.828125 18.507812 20.441406 18.597656 20.40625 C 19.492188 20.050781 20.464844 19.703125 20.597656 20.328125 C 20.617188 20.421875 20.480469 20.453125 20.382812 20.804688 C 21.191406 20.867188 21.367188 21.542969 20.894531 21.902344 C 21.472656 21.933594 21.347656 22.519531 21 22.863281 C 22.070312 23.234375 21.027344 24.011719 20.367188 24.332031 C 20.121094 24.453125 17.949219 25.171875 17.933594 25.183594 C 17.808594 25.257812 17.851562 25.800781 17.621094 27.242188 C 17.1875 27.042969 15.765625 26.183594 15.289062 25.207031 C 14.84375 24.285156 14.941406 24.039062 14.945312 23.988281 Z M 14.945312 23.988281 " clip-rule="evenodd"/></clipPath><clipPath id="904a6ab705"><path d="M 18 20 L 22 20 L 22 24 L 18 24 Z M 18 20 " clip-rule="nonzero"/></clipPath><clipPath id="57d1fea759"><path d="M 12.976562 19.179688 L 19.566406 17.011719 L 22.777344 25.5625 L 16.191406 27.730469 Z M 12.976562 19.179688 " clip-rule="nonzero"/></clipPath><clipPath id="8df86a6577"><path d="M 14.945312 23.988281 C 15.457031 23.585938 15.816406 22.980469 15.914062 21.320312 C 16.035156 19.316406 15.726562 18.875 15.601562 18.699219 C 15.175781 18.085938 16.847656 17.875 17.234375 19.867188 C 17.257812 19.976562 17.484375 20.855469 17.507812 20.84375 C 17.535156 20.828125 18.507812 20.441406 18.597656 20.40625 C 19.492188 20.050781 20.464844 19.703125 20.597656 20.328125 C 20.617188 20.421875 20.480469 20.453125 20.382812 20.804688 C 21.191406 20.867188 21.367188 21.542969 20.894531 21.902344 C 21.472656 21.933594 21.347656 22.519531 21 22.863281 C 22.070312 23.234375 21.027344 24.011719 20.367188 24.332031 C 20.121094 24.453125 17.949219 25.171875 17.933594 25.183594 C 17.808594 25.257812 17.851562 25.800781 17.621094 27.242188 C 17.1875 27.042969 15.765625 26.183594 15.289062 25.207031 C 14.84375 24.285156 14.941406 24.039062 14.945312 23.988281 Z M 14.945312 23.988281 " clip-rule="evenodd"/></clipPath><clipPath id="dd90d3c772"><path d="M 26 17 L 29 17 L 29 21 L 26 21 Z M 26 17 " clip-rule="nonzero"/></clipPath><clipPath id="20b766fe15"><path d="M 31.929688 18.421875 L 25.339844 16.253906 L 22.128906 24.804688 L 28.714844 26.972656 Z M 31.929688 18.421875 " clip-rule="nonzero"/></clipPath><clipPath id="cf02370b03"><path d="M 29.960938 23.230469 C 29.449219 22.828125 29.089844 22.222656 28.992188 20.5625 C 28.871094 18.558594 29.179688 18.117188 29.300781 17.941406 C 29.730469 17.328125 28.058594 17.117188 27.671875 19.109375 C 27.648438 19.222656 27.421875 20.101562 27.398438 20.085938 C 27.371094 20.070312 26.398438 19.683594 26.308594 19.648438 C 25.414062 19.292969 24.441406 18.945312 24.308594 19.570312 C 24.289062 19.664062 24.425781 19.695312 24.523438 20.046875 C 23.714844 20.109375 23.539062 20.785156 24.011719 21.144531 C 23.433594 21.175781 23.558594 21.761719 23.90625 22.105469 C 22.835938 22.476562 23.878906 23.253906 24.539062 23.574219 C 24.785156 23.695312 26.957031 24.414062 26.972656 24.425781 C 27.097656 24.5 27.054688 25.042969 27.285156 26.484375 C 27.71875 26.285156 29.140625 25.425781 29.613281 24.449219 C 30.0625 23.527344 29.964844 23.28125 29.960938 23.230469 Z M 29.960938 23.230469 " clip-rule="evenodd"/></clipPath><clipPath id="1043c141b4"><path d="M 23 19 L 27 19 L 27 23 L 23 23 Z M 23 19 " clip-rule="nonzero"/></clipPath><clipPath id="88c6ec8d7c"><path d="M 31.929688 18.421875 L 25.339844 16.253906 L 22.128906 24.804688 L 28.714844 26.972656 Z M 31.929688 18.421875 " clip-rule="nonzero"/></clipPath><clipPath id="6274b0813d"><path d="M 29.960938 23.230469 C 29.449219 22.828125 29.089844 22.222656 28.992188 20.5625 C 28.871094 18.558594 29.179688 18.117188 29.300781 17.941406 C 29.730469 17.328125 28.058594 17.117188 27.671875 19.109375 C 27.648438 19.222656 27.421875 20.101562 27.398438 20.085938 C 27.371094 20.070312 26.398438 19.683594 26.308594 19.648438 C 25.414062 19.292969 24.441406 18.945312 24.308594 19.570312 C 24.289062 19.664062 24.425781 19.695312 24.523438 20.046875 C 23.714844 20.109375 23.539062 20.785156 24.011719 21.144531 C 23.433594 21.175781 23.558594 21.761719 23.90625 22.105469 C 22.835938 22.476562 23.878906 23.253906 24.539062 23.574219 C 24.785156 23.695312 26.957031 24.414062 26.972656 24.425781 C 27.097656 24.5 27.054688 25.042969 27.285156 26.484375 C 27.71875 26.285156 29.140625 25.425781 29.613281 24.449219 C 30.0625 23.527344 29.964844 23.28125 29.960938 23.230469 Z M 29.960938 23.230469 " clip-rule="evenodd"/></clipPath></defs><path fill="#a58270" d="M 9.058594 32.011719 C 8.59375 35.625 9.058594 44.902344 12.550781 44.902344 C 12.65625 44.902344 17.527344 44.949219 21.109375 44.902344 C 21.355469 44.898438 33.921875 44.941406 35.128906 44.707031 C 37.957031 44.15625 36.699219 30.304688 35.40625 29.03125 C 28.773438 22.519531 17.921875 21.539062 11.578125 29.011719 Z M 9.058594 32.011719 " fill-opacity="1" fill-rule="evenodd"/><path fill="#37241f" d="M 16.066406 20.082031 L 11.765625 45 L 35.128906 45 L 27.496094 20.082031 Z M 16.066406 20.082031 " fill-opacity="1" fill-rule="evenodd"/><path fill="#a58270" d="M 9.058594 33.84375 C 9.710938 35.324219 10.191406 31.550781 11.765625 32.542969 C 16.671875 35.632812 10.023438 44.902344 21.460938 44.902344 C 35.867188 44.902344 31.078125 31.96875 31.121094 31.863281 C 33.050781 27.019531 36.910156 33.917969 36.835938 36.203125 C 36.8125 36.855469 35.46875 24.96875 35.304688 23.9375 C 35.117188 22.765625 33.335938 19.515625 32.425781 18.675781 C 31.484375 17.804688 30.785156 15.753906 30.691406 15.480469 C 28.355469 8.636719 30.21875 5.628906 27.222656 2.019531 C 25.546875 0 21.570312 0.46875 21.078125 0.523438 C 13.9375 1.347656 14.613281 8.296875 14.585938 10.179688 C 14.542969 13.089844 13.292969 18.640625 13.144531 18.675781 C 10.023438 19.414062 9.078125 27.179688 9.058594 27.242188 C 8.773438 30.539062 8.78125 33.210938 9.058594 33.84375 Z M 9.058594 33.84375 " fill-opacity="1" fill-rule="evenodd"/><path fill="#fec3b1" d="M 17.101562 9.992188 C 17.105469 9.515625 17.378906 7.957031 18.46875 6.445312 C 19.132812 5.523438 20.613281 4.179688 21.046875 4.289062 C 23.679688 4.960938 24.90625 5.796875 25.445312 6.261719 C 26.078125 6.808594 26.957031 8.527344 27.226562 9.945312 C 27.226562 9.945312 27.519531 11.53125 27.238281 12.113281 C 26.351562 13.949219 24.488281 15.109375 22.800781 15.292969 C 20.441406 15.546875 18.511719 14.058594 17.621094 13.019531 C 17.246094 12.582031 17.101562 9.992188 17.101562 9.992188 Z M 17.101562 9.992188 " fill-opacity="1" fill-rule="evenodd"/><path fill="#000000" d="M 15.105469 4.6875 C 14.933594 3.398438 27.394531 2.492188 28.089844 3.113281 C 28.535156 3.511719 28.824219 4.195312 28.882812 4.28125 C 29.753906 5.574219 30.101562 8.710938 29.972656 8.832031 C 29.835938 8.960938 27.359375 7.460938 26.710938 7.460938 C 22.933594 7.460938 17.027344 8.46875 16.589844 8.457031 C 15.621094 8.421875 14.46875 11.492188 14.261719 9.800781 C 14.085938 8.375 15 4.839844 15.105469 4.6875 Z M 15.105469 4.6875 " fill-opacity="1" fill-rule="evenodd"/><path fill="#000000" d="M 15.398438 8.421875 C 16.199219 11.0625 14.769531 27.710938 17.46875 29.144531 C 17.878906 29.363281 23.171875 29.433594 28.976562 29.089844 C 30.273438 29.015625 29.644531 24.75 28.976562 14.515625 C 28.882812 13.085938 29.070312 9.679688 27.769531 6.261719 C 27.480469 7.136719 27.484375 7.960938 27.054688 8.433594 C 26.3125 9.246094 18.910156 9.730469 18.261719 9.589844 C 16.40625 9.191406 16.324219 6.78125 15.496094 8.285156 Z M 15.398438 8.421875 " fill-opacity="1" fill-rule="evenodd"/><path fill="#fec3b1" d="M 14.945312 23.988281 C 15.457031 23.585938 15.816406 22.980469 15.914062 21.320312 C 16.035156 19.316406 15.726562 18.875 15.601562 18.699219 C 15.175781 18.085938 16.847656 17.875 17.234375 19.867188 C 17.257812 19.976562 17.484375 20.855469 17.507812 20.84375 C 17.535156 20.828125 18.507812 20.441406 18.597656 20.40625 C 19.492188 20.050781 20.464844 19.703125 20.597656 20.328125 C 20.617188 20.421875 20.480469 20.453125 20.382812 20.804688 C 21.191406 20.867188 21.367188 21.542969 20.894531 21.902344 C 21.472656 21.933594 21.347656 22.519531 21 22.863281 C 22.070312 23.234375 21.027344 24.011719 20.367188 24.332031 C 20.121094 24.453125 17.949219 25.171875 17.933594 25.183594 C 17.808594 25.257812 17.851562 25.800781 17.621094 27.242188 C 17.1875 27.042969 15.765625 26.183594 15.289062 25.207031 C 14.84375 24.285156 14.941406 24.039062 14.945312 23.988281 Z M 14.945312 23.988281 " fill-opacity="1" fill-rule="evenodd"/><g clip-path="url(#eca6f71bd1)"><g clip-path="url(#a9ab79e467)"><g clip-path="url(#dd45ae7fc9)"><path fill="#ec8479" d="M 15.945312 18.210938 C 15.972656 18.265625 16.457031 18.59375 16.652344 19.09375 C 16.714844 19.25 17.15625 20.363281 17.277344 21.070312 C 17.964844 20.851562 18.261719 20.074219 17.941406 19.175781 C 17.5 17.933594 16.941406 17.878906 16.511719 17.734375 Z M 15.945312 18.210938 " fill-opacity="1" fill-rule="evenodd"/></g></g></g><g clip-path="url(#904a6ab705)"><g clip-path="url(#57d1fea759)"><g clip-path="url(#8df86a6577)"><path fill="#ec8479" d="M 20.777344 20.230469 C 20.621094 20.21875 20.695312 20.40625 19 20.953125 C 18.480469 21.121094 18.183594 21.261719 18.355469 21.25 C 19.863281 21.152344 21.164062 20.363281 21.625 21.03125 C 21.941406 21.492188 19.890625 22.074219 19.3125 22.289062 C 19.90625 22.191406 19.898438 22.1875 20.488281 22.078125 C 20.785156 22.019531 21.917969 21.574219 21.796875 22.179688 C 21.722656 22.554688 20.5 22.859375 19.253906 23.375 C 19.832031 23.292969 19.824219 23.28125 21.609375 22.890625 C 23.027344 22.582031 22.277344 21.359375 22.21875 21.300781 C 21.265625 20.328125 20.769531 20.226562 20.777344 20.230469 Z M 20.777344 20.230469 " fill-opacity="1" fill-rule="evenodd"/></g></g></g><path fill="#fec3b1" d="M 29.960938 23.230469 C 29.449219 22.828125 29.089844 22.222656 28.992188 20.5625 C 28.871094 18.558594 29.179688 18.117188 29.300781 17.941406 C 29.730469 17.328125 28.058594 17.117188 27.671875 19.109375 C 27.648438 19.222656 27.421875 20.101562 27.398438 20.085938 C 27.371094 20.070312 26.398438 19.683594 26.308594 19.648438 C 25.414062 19.292969 24.441406 18.945312 24.308594 19.570312 C 24.289062 19.664062 24.425781 19.695312 24.523438 20.046875 C 23.714844 20.109375 23.539062 20.785156 24.011719 21.144531 C 23.433594 21.175781 23.558594 21.761719 23.90625 22.105469 C 22.835938 22.476562 23.878906 23.253906 24.539062 23.574219 C 24.785156 23.695312 26.957031 24.414062 26.972656 24.425781 C 27.097656 24.5 27.054688 25.042969 27.285156 26.484375 C 27.71875 26.285156 29.140625 25.425781 29.613281 24.449219 C 30.0625 23.527344 29.964844 23.28125 29.960938 23.230469 Z M 29.960938 23.230469 " fill-opacity="1" fill-rule="evenodd"/><g clip-path="url(#dd90d3c772)"><g clip-path="url(#20b766fe15)"><g clip-path="url(#cf02370b03)"><path fill="#ec8479" d="M 28.960938 17.453125 C 28.933594 17.507812 28.449219 17.839844 28.253906 18.335938 C 28.191406 18.492188 27.75 19.605469 27.628906 20.3125 C 26.941406 20.09375 26.644531 19.316406 26.964844 18.417969 C 27.40625 17.175781 27.964844 17.121094 28.394531 16.976562 Z M 28.960938 17.453125 " fill-opacity="1" fill-rule="evenodd"/></g></g></g><g clip-path="url(#1043c141b4)"><g clip-path="url(#88c6ec8d7c)"><g clip-path="url(#6274b0813d)"><path fill="#ec8479" d="M 24.128906 19.472656 C 24.285156 19.460938 24.210938 19.648438 25.90625 20.195312 C 26.425781 20.363281 26.722656 20.503906 26.550781 20.492188 C 25.042969 20.394531 23.742188 19.605469 23.28125 20.273438 C 22.964844 20.734375 25.011719 21.316406 25.59375 21.53125 C 25 21.433594 25.007812 21.429688 24.417969 21.320312 C 24.121094 21.261719 22.988281 20.816406 23.109375 21.421875 C 23.183594 21.796875 24.40625 22.101562 25.652344 22.617188 C 25.074219 22.535156 25.082031 22.523438 23.296875 22.132812 C 21.878906 21.824219 22.628906 20.601562 22.6875 20.542969 C 23.640625 19.570312 24.136719 19.46875 24.128906 19.472656 Z M 24.128906 19.472656 " fill-opacity="1" fill-rule="evenodd"/></g></g></g><path fill="#37241f" d="M 19 24.675781 C 20.355469 26.113281 18.273438 26.777344 18.496094 27.8125 C 18.832031 29.378906 18.496094 29.648438 17.179688 33 C 16.425781 34.921875 14.851562 36.859375 13.746094 36.953125 C 11.667969 37.128906 8.042969 34.976562 9.328125 32.464844 C 10.5625 30.066406 10.859375 31.269531 11.5 28.238281 C 11.800781 26.804688 12.128906 26.367188 13.519531 25.410156 C 14.320312 24.855469 14.28125 23.511719 15.09375 22.804688 C 16.023438 22.464844 17.824219 23.425781 19 24.675781 Z M 19 24.675781 " fill-opacity="1" fill-rule="evenodd"/><path fill="#37241f" d="M 25.90625 23.917969 C 24.550781 25.355469 26.632812 26.019531 26.410156 27.054688 C 26.070312 28.621094 26.410156 28.890625 27.726562 32.242188 C 28.480469 34.164062 30.054688 36.101562 31.160156 36.195312 C 33.238281 36.371094 36.863281 34.21875 35.578125 31.707031 C 34.34375 29.308594 34.046875 30.511719 33.40625 27.480469 C 33.105469 26.046875 32.777344 25.613281 31.386719 24.652344 C 30.585938 24.097656 30.625 22.753906 29.8125 22.046875 C 28.882812 21.707031 27.082031 22.667969 25.90625 23.917969 Z M 25.90625 23.917969 " fill-opacity="1" fill-rule="evenodd"/></svg>