<svg xmlns="http://www.w3.org/2000/svg" xmlns:xlink="http://www.w3.org/1999/xlink" width="60" zoomAndPan="magnify" viewBox="0 0 45 44.999999" height="60" preserveAspectRatio="xMidYMid meet" version="1.0"><defs><clipPath id="8bc264d482"><path d="M 11 39 L 13 39 L 13 41 L 11 41 Z M 11 39 " clip-rule="nonzero"/></clipPath><clipPath id="7ecaed2a37"><path d="M 18.515625 40.308594 C 18.78125 39.570312 18.296875 39.410156 17.984375 37.074219 C 14 36.929688 13.636719 34.476562 11.046875 36.617188 C 7.78125 39.320312 7.816406 39.625 8.128906 39.789062 C 8.933594 40.21875 10.382812 38.898438 10.535156 38.757812 C 10.746094 39.476562 10.742188 39.480469 11.25 40.054688 C 11.359375 40.179688 11.371094 40.605469 11.824219 40.847656 C 12.171875 41.035156 13.097656 41.140625 13.210938 41.15625 C 13.585938 40.757812 13.359375 40.496094 13.96875 40.417969 C 14.785156 40.308594 17.222656 40.554688 18.515625 40.308594 Z M 18.515625 40.308594 " clip-rule="evenodd"/></clipPath><clipPath id="420fdfa296"><path d="M 10 37 L 13 37 L 13 40 L 10 40 Z M 10 37 " clip-rule="nonzero"/></clipPath><clipPath id="7d1ca11a3c"><path d="M 18.515625 40.308594 C 18.78125 39.570312 18.296875 39.410156 17.984375 37.074219 C 14 36.929688 13.636719 34.476562 11.046875 36.617188 C 7.78125 39.320312 7.816406 39.625 8.128906 39.789062 C 8.933594 40.21875 10.382812 38.898438 10.535156 38.757812 C 10.746094 39.476562 10.742188 39.480469 11.25 40.054688 C 11.359375 40.179688 11.371094 40.605469 11.824219 40.847656 C 12.171875 41.035156 13.097656 41.140625 13.210938 41.15625 C 13.585938 40.757812 13.359375 40.496094 13.96875 40.417969 C 14.785156 40.308594 17.222656 40.554688 18.515625 40.308594 Z M 18.515625 40.308594 " clip-rule="evenodd"/></clipPath><clipPath id="ca0211ee14"><path d="M 12 38 L 18.621094 38 L 18.621094 41.175781 L 12 41.175781 Z M 12 38 " clip-rule="nonzero"/></clipPath><clipPath id="17a3c795a4"><path d="M 18.515625 40.308594 C 18.78125 39.570312 18.296875 39.410156 17.984375 37.074219 C 14 36.929688 13.636719 34.476562 11.046875 36.617188 C 7.78125 39.320312 7.816406 39.625 8.128906 39.789062 C 8.933594 40.21875 10.382812 38.898438 10.535156 38.757812 C 10.746094 39.476562 10.742188 39.480469 11.25 40.054688 C 11.359375 40.179688 11.371094 40.605469 11.824219 40.847656 C 12.171875 41.035156 13.097656 41.140625 13.210938 41.15625 C 13.585938 40.757812 13.359375 40.496094 13.96875 40.417969 C 14.785156 40.308594 17.222656 40.554688 18.515625 40.308594 Z M 18.515625 40.308594 " clip-rule="evenodd"/></clipPath></defs><path fill="#37241f" d="M 16.6875 19.777344 L 11.566406 44.890625 L 35.921875 44.890625 L 34.351562 37.511719 L 28.222656 19.777344 Z M 16.6875 19.777344 " fill-opacity="1" fill-rule="evenodd"/><path fill="#37241f" d="M 7.113281 35.757812 C 7.039062 33.53125 8.476562 24.621094 11.566406 22.882812 C 16.871094 19.894531 17.332031 33.085938 16.335938 35.757812 C 15.09375 39.085938 7.25 39.644531 7.113281 35.757812 Z M 7.113281 35.757812 " fill-opacity="1" fill-rule="evenodd"/><path fill="#37241f" d="M 28.226562 37.351562 C 27.851562 35.125 28.828125 26.214844 32.679688 24.476562 C 38.253906 21.960938 38.445312 34.679688 37.445312 37.351562 C 36.207031 40.679688 28.875 41.195312 28.226562 37.351562 Z M 28.226562 37.351562 " fill-opacity="1" fill-rule="evenodd"/><path fill="#a58270" d="M 8.015625 29.050781 C 4.863281 41.308594 10.707031 43.5625 11.589844 45.164062 C 12.035156 45.976562 14.140625 31.914062 15.472656 33.441406 C 17.28125 35.507812 12.933594 43.765625 18.589844 44.890625 C 21.867188 45.542969 30.011719 44.890625 30.011719 44.890625 C 30.714844 44.367188 31.914062 36.613281 33.105469 36.6875 C 35.082031 36.8125 35.183594 45.058594 35.921875 44.890625 C 36.339844 44.796875 39.0625 44.863281 39.332031 44.121094 C 41.015625 39.511719 37.597656 23.648438 35.636719 20.515625 C 34.976562 19.464844 34.066406 18.703125 33.105469 17.898438 C 32.109375 17.0625 31.296875 15.03125 31.1875 14.757812 C 28.472656 7.972656 29.53125 5.234375 26.324219 1.738281 C 24.527344 -0.21875 21.203125 0.0546875 20.710938 0.132812 C 13.558594 1.28125 14.605469 8.25 14.675781 10.144531 C 14.785156 13.078125 13.816406 18.722656 13.671875 18.761719 C 10.566406 19.644531 8.015625 29.050781 8.015625 29.050781 Z M 8.015625 29.050781 " fill-opacity="1" fill-rule="evenodd"/><path fill="#fec3b1" d="M 10.136719 18.105469 C 9.003906 17.964844 9.03125 18.585938 9.738281 19.9375 C 10.199219 20.820312 11.5 20.71875 12.355469 22.363281 C 12.53125 22.699219 15.234375 23.324219 15.363281 22.347656 C 16.035156 17.304688 14.300781 17.496094 13.613281 17.125 C 13.613281 17.125 13.234375 15.929688 13.070312 13.601562 C 13.003906 12.679688 11.828125 12.90625 12 13.824219 C 12.246094 15.136719 12.203125 16.695312 12.203125 16.695312 C 12.25 16.917969 11.972656 16.957031 11.59375 16.519531 C 11.433594 16.335938 10.507812 15.234375 9.578125 13.96875 C 9.167969 13.402344 8.332031 13.925781 8.820312 14.59375 C 9.6875 15.777344 9.914062 16.128906 10.5625 17.042969 C 10.019531 17.074219 9.667969 17.367188 10.136719 18.105469 Z M 10.136719 18.105469 " fill-opacity="1" fill-rule="evenodd"/><path fill="#ec8479" d="M 10.695312 17.027344 C 10.652344 17.011719 10.605469 17.027344 10.585938 17.066406 C 10.566406 17.105469 10.585938 17.152344 10.625 17.167969 C 10.785156 17.234375 10.933594 17.246094 11.140625 17.394531 C 11.347656 17.542969 11.609375 17.828125 11.992188 18.433594 C 12.019531 18.480469 12.0625 18.542969 12.09375 18.609375 C 12.121094 18.667969 12.136719 18.726562 12.117188 18.785156 C 12.089844 18.867188 11.992188 18.925781 11.777344 18.960938 C 11.621094 18.988281 11.511719 18.960938 11.332031 18.839844 C 11.125 18.699219 10.839844 18.449219 10.347656 18.039062 C 10.3125 18.007812 10.261719 18.011719 10.230469 18.042969 C 10.199219 18.074219 10.203125 18.125 10.234375 18.152344 C 10.734375 18.570312 11.023438 18.820312 11.230469 18.960938 C 11.464844 19.121094 11.605469 19.148438 11.808594 19.113281 C 12.113281 19.058594 12.238281 18.945312 12.277344 18.832031 C 12.304688 18.757812 12.296875 18.679688 12.269531 18.601562 C 12.238281 18.507812 12.171875 18.417969 12.136719 18.355469 C 11.738281 17.722656 11.460938 17.429688 11.242188 17.273438 C 11.023438 17.117188 10.863281 17.097656 10.695312 17.027344 Z M 10.695312 17.027344 " fill-opacity="1" fill-rule="evenodd"/><path fill="#ec8479" d="M 11.207031 18.824219 C 11.183594 18.789062 11.132812 18.777344 11.09375 18.800781 C 11.054688 18.820312 11.042969 18.871094 11.066406 18.90625 C 11.09375 18.949219 11.308594 19.261719 11.390625 19.53125 C 11.417969 19.609375 11.429688 19.6875 11.417969 19.746094 C 11.410156 19.789062 11.386719 19.820312 11.339844 19.835938 C 11.179688 19.882812 11.050781 19.8125 10.882812 19.707031 C 10.585938 19.519531 10.199219 19.207031 9.496094 18.996094 C 9.449219 18.984375 9.402344 19.007812 9.390625 19.046875 C 9.375 19.085938 9.398438 19.132812 9.441406 19.144531 C 10.128906 19.347656 10.5 19.652344 10.785156 19.832031 C 11.007812 19.972656 11.183594 20.042969 11.390625 19.980469 C 11.550781 19.933594 11.605469 19.804688 11.585938 19.636719 C 11.546875 19.328125 11.246094 18.878906 11.207031 18.824219 Z M 11.207031 18.824219 " fill-opacity="1" fill-rule="evenodd"/><path fill="#ec8479" d="M 10.191406 19.464844 C 10.234375 19.445312 10.25 19.398438 10.230469 19.359375 C 10.210938 19.324219 10.164062 19.304688 10.121094 19.324219 C 9.886719 19.425781 9.890625 19.421875 9.699219 19.566406 C 9.664062 19.59375 9.65625 19.640625 9.6875 19.675781 C 9.714844 19.707031 9.769531 19.710938 9.804688 19.6875 C 9.980469 19.554688 9.976562 19.554688 10.191406 19.464844 Z M 10.191406 19.464844 " fill-opacity="1" fill-rule="evenodd"/><path fill="#ec8479" d="M 13.652344 18.15625 C 13.652344 18.113281 13.617188 18.078125 13.570312 18.078125 C 13.523438 18.078125 13.488281 18.109375 13.488281 18.152344 C 13.476562 18.824219 13.4375 19.117188 13.566406 19.390625 C 13.652344 19.578125 13.808594 19.753906 14.109375 20.03125 C 14.140625 20.0625 14.191406 20.0625 14.226562 20.035156 C 14.257812 20.003906 14.257812 19.953125 14.226562 19.925781 C 13.949219 19.667969 13.796875 19.503906 13.71875 19.332031 C 13.597656 19.070312 13.644531 18.792969 13.652344 18.15625 Z M 13.652344 18.15625 " fill-opacity="1" fill-rule="evenodd"/><path fill="#ec8479" d="M 13.550781 18.535156 C 13.585938 18.511719 13.597656 18.464844 13.570312 18.429688 C 13.546875 18.394531 13.492188 18.386719 13.457031 18.410156 C 12.3125 19.128906 12.179688 19.4375 11.851562 20.417969 C 11.835938 20.457031 11.863281 20.5 11.90625 20.511719 C 11.949219 20.523438 11.996094 20.503906 12.011719 20.460938 C 12.328125 19.523438 12.453125 19.226562 13.550781 18.535156 Z M 13.550781 18.535156 " fill-opacity="1" fill-rule="evenodd"/><path fill="#ec8479" d="M 13.453125 18.589844 C 13.496094 18.574219 13.527344 18.527344 13.5 18.492188 C 13.421875 18.390625 11.203125 17.121094 11.378906 17.359375 C 11.527344 17.558594 12.332031 18.59375 12.210938 18.722656 C 11.53125 19.425781 11.265625 18.621094 11.132812 18.789062 C 11.027344 18.917969 11.484375 19.273438 11.535156 19.597656 C 11.574219 19.839844 11.234375 20.042969 11.097656 20.242188 C 11.074219 20.277344 11.085938 20.324219 11.125 20.347656 C 11.164062 20.371094 11.214844 20.359375 11.242188 20.324219 C 11.886719 19.371094 12.105469 19.101562 13.453125 18.589844 Z M 13.453125 18.589844 " fill-opacity="1" fill-rule="evenodd"/><path fill="#ec8479" d="M 13.699219 17.324219 C 13.742188 17.335938 13.792969 17.316406 13.804688 17.273438 C 13.820312 17.234375 13.796875 17.191406 13.753906 17.175781 C 13.644531 17.144531 12.730469 16.859375 12.136719 16.882812 C 11.84375 16.894531 11.628906 16.988281 11.574219 17.183594 C 11.53125 17.332031 11.613281 17.484375 11.847656 17.652344 C 12.144531 17.867188 12.703125 18.125 13.523438 18.503906 C 13.5625 18.523438 13.613281 18.507812 13.632812 18.472656 C 13.65625 18.433594 13.636719 18.386719 13.597656 18.367188 C 12.792969 17.992188 12.242188 17.738281 11.949219 17.53125 C 11.859375 17.464844 11.796875 17.40625 11.761719 17.351562 C 11.734375 17.308594 11.722656 17.265625 11.734375 17.222656 C 11.753906 17.164062 11.796875 17.121094 11.859375 17.09375 C 11.9375 17.058594 12.035156 17.042969 12.144531 17.039062 C 12.714844 17.015625 13.59375 17.289062 13.699219 17.324219 Z M 13.699219 17.324219 " fill-opacity="1" fill-rule="evenodd"/><path fill="#fec3b1" d="M 18.515625 40.308594 C 18.78125 39.570312 18.296875 39.410156 17.984375 37.074219 C 14 36.929688 13.636719 34.476562 11.046875 36.617188 C 7.78125 39.320312 7.816406 39.625 8.128906 39.789062 C 8.933594 40.21875 10.382812 38.898438 10.535156 38.757812 C 10.746094 39.476562 10.742188 39.480469 11.25 40.054688 C 11.359375 40.179688 11.371094 40.605469 11.824219 40.847656 C 12.171875 41.035156 13.097656 41.140625 13.210938 41.15625 C 13.585938 40.757812 13.359375 40.496094 13.96875 40.417969 C 14.785156 40.308594 17.222656 40.554688 18.515625 40.308594 Z M 18.515625 40.308594 " fill-opacity="1" fill-rule="evenodd"/><g clip-path="url(#8bc264d482)"><g clip-path="url(#7ecaed2a37)"><path fill="#ec8479" d="M 11.394531 40.097656 C 11.371094 40.132812 11.316406 40.144531 11.277344 40.121094 C 11.242188 40.097656 11.230469 40.050781 11.253906 40.011719 C 11.601562 39.515625 11.777344 39.421875 12.601562 39.15625 C 12.644531 39.140625 12.691406 39.160156 12.707031 39.203125 C 12.722656 39.242188 12.699219 39.285156 12.65625 39.300781 C 11.886719 39.550781 11.722656 39.632812 11.394531 40.097656 Z M 11.394531 40.097656 " fill-opacity="1" fill-rule="evenodd"/></g></g><g clip-path="url(#420fdfa296)"><g clip-path="url(#7d1ca11a3c)"><path fill="#ec8479" d="M 10.59375 38.980469 C 10.578125 39.019531 10.53125 39.039062 10.488281 39.027344 C 10.445312 39.011719 10.421875 38.96875 10.4375 38.929688 C 10.570312 38.5625 10.859375 38.355469 11.191406 38.21875 C 11.511719 38.089844 11.871094 38.03125 12.164062 37.960938 C 12.210938 37.949219 12.257812 37.976562 12.269531 38.015625 C 12.28125 38.058594 12.253906 38.097656 12.207031 38.109375 C 11.917969 38.179688 11.570312 38.234375 11.261719 38.359375 C 10.96875 38.476562 10.710938 38.65625 10.59375 38.980469 Z M 10.59375 38.980469 " fill-opacity="1" fill-rule="evenodd"/></g></g><g clip-path="url(#ca0211ee14)"><g clip-path="url(#17a3c795a4)"><path fill="#ec8479" d="M 16.546875 39.835938 C 17.890625 39.359375 17.9375 37.9375 18.671875 39.011719 C 20.054688 41.039062 17.894531 42.722656 13.738281 41.433594 C 12.925781 41.179688 12.601562 40.5625 13.382812 40.238281 C 14.335938 39.84375 15.65625 40.152344 16.546875 39.835938 Z M 16.546875 39.835938 " fill-opacity="1" fill-rule="evenodd"/></g></g><path fill="#fec3b1" d="M 16.65625 10.195312 C 16.628906 9.714844 16.8125 8.132812 17.816406 6.554688 C 18.429688 5.59375 19.839844 4.164062 20.28125 4.25 C 22.976562 4.792969 24.007812 5.734375 24.578125 6.175781 C 25.25 6.691406 26.496094 8.210938 26.851562 9.625 C 26.851562 9.625 27.242188 11.207031 26.996094 11.804688 C 26.214844 13.699219 24.40625 14.960938 22.71875 15.234375 C 20.359375 15.609375 18.324219 14.214844 17.363281 13.214844 C 16.960938 12.792969 16.65625 10.195312 16.65625 10.195312 Z M 16.65625 10.195312 " fill-opacity="1" fill-rule="evenodd"/><path fill="#000000" d="M 14.679688 4.414062 C 14.496094 3.082031 26.910156 2.042969 27.613281 2.675781 C 28.0625 3.082031 28.351562 3.789062 28.414062 3.875 C 29.296875 5.203125 29.671875 8.4375 29.546875 8.5625 C 29.410156 8.695312 26.925781 7.171875 26.277344 7.175781 C 22.511719 7.210938 16.636719 8.300781 16.199219 8.289062 C 15.230469 8.265625 14.113281 11.445312 13.886719 9.699219 C 13.699219 8.226562 14.578125 4.570312 14.679688 4.414062 Z M 14.679688 4.414062 " fill-opacity="1" fill-rule="evenodd"/><path fill="#000000" d="M 14.625 8.554688 C 15.570312 11.234375 15.097656 28.472656 17.871094 29.816406 C 18.289062 30.019531 23.566406 29.832031 29.324219 29.1875 C 30.613281 29.042969 29.746094 24.679688 28.492188 14.160156 C 28.316406 12.691406 28.308594 9.167969 26.816406 5.710938 C 26.582031 6.625 26.632812 7.476562 26.230469 7.984375 C 25.539062 8.859375 18.195312 9.726562 17.542969 9.617188 C 15.671875 9.296875 15.453125 6.816406 14.714844 8.40625 Z M 14.625 8.554688 " fill-opacity="1" fill-rule="evenodd"/><path fill="#37241f" d="M 15.367188 21.6875 C 16.527344 21.785156 15.726562 24.324219 15.773438 24.359375 C 16.835938 25.179688 16.578125 27.730469 16.4375 31.320312 C 16.359375 33.378906 16.136719 37.09375 15.105469 37.5 C 13.171875 38.261719 8.695312 40.042969 8.695312 36.09375 C 8.695312 33.414062 9.789062 31.464844 9.382812 28.375 C 9.195312 26.914062 10.261719 25.613281 10.949219 24.128906 C 11.207031 23.574219 10.828125 21.761719 11.5625 21.355469 C 12.300781 20.949219 14.050781 21.570312 15.367188 21.6875 Z M 15.367188 21.6875 " fill-opacity="1" fill-rule="evenodd"/><path fill="#37241f" d="M 17.539062 37.636719 C 17.320312 36.582031 20.1875 36.582031 20.210938 36.53125 C 20.769531 35.363281 23.496094 34.875 27.277344 33.996094 C 29.445312 33.488281 33.335938 32.113281 34.398438 32.335938 C 38.371094 33.160156 38.988281 38.867188 31.234375 40.34375 C 28.398438 40.882812 29.285156 39.839844 26.179688 41.0625 C 24.710938 41.636719 23.058594 41.058594 21.316406 40.863281 C 20.671875 40.789062 18.890625 41.632812 18.257812 41.09375 C 17.628906 40.558594 17.789062 38.835938 17.539062 37.636719 Z M 17.539062 37.636719 " fill-opacity="1" fill-rule="evenodd"/></svg>