<svg xmlns="http://www.w3.org/2000/svg" xmlns:xlink="http://www.w3.org/1999/xlink" width="60" zoomAndPan="magnify" viewBox="0 0 45 44.999999" height="60" preserveAspectRatio="xMidYMid meet" version="1.0"><defs><clipPath id="87ec3595bf"><path d="M 10 10 L 13 10 L 13 13 L 10 13 Z M 10 10 " clip-rule="nonzero"/></clipPath><clipPath id="7540796462"><path d="M 6.59375 9.308594 L 12.78125 8.734375 L 13.441406 14.796875 L 7.257812 15.371094 Z M 6.59375 9.308594 " clip-rule="nonzero"/></clipPath><clipPath id="3b23941e80"><path d="M 7.175781 14.414062 C 7.265625 14.023438 8.230469 9.824219 8.320312 9.546875 C 8.667969 8.457031 12.191406 9.488281 12.351562 9.8125 C 12.621094 10.351562 12.996094 10.175781 12.953125 10.765625 C 12.84375 12.191406 13.054688 12.273438 12.675781 12.660156 C 11.582031 13.777344 10.390625 14.066406 10.109375 14.769531 C 9.910156 15.277344 8.589844 15.460938 7.175781 14.414062 Z M 7.175781 14.414062 " clip-rule="evenodd"/></clipPath><clipPath id="c6736092f6"><path d="M 9 11 L 11 11 L 11 14 L 9 14 Z M 9 11 " clip-rule="nonzero"/></clipPath><clipPath id="ed4759fe6f"><path d="M 6.59375 9.308594 L 12.78125 8.734375 L 13.441406 14.796875 L 7.257812 15.371094 Z M 6.59375 9.308594 " clip-rule="nonzero"/></clipPath><clipPath id="12e4f146e6"><path d="M 7.175781 14.414062 C 7.265625 14.023438 8.230469 9.824219 8.320312 9.546875 C 8.667969 8.457031 12.191406 9.488281 12.351562 9.8125 C 12.621094 10.351562 12.996094 10.175781 12.953125 10.765625 C 12.84375 12.191406 13.054688 12.273438 12.675781 12.660156 C 11.582031 13.777344 10.390625 14.066406 10.109375 14.769531 C 9.910156 15.277344 8.589844 15.460938 7.175781 14.414062 Z M 7.175781 14.414062 " clip-rule="evenodd"/></clipPath><clipPath id="57d2c2786c"><path d="M 8 10 L 11 10 L 11 13 L 8 13 Z M 8 10 " clip-rule="nonzero"/></clipPath><clipPath id="e78c9055d0"><path d="M 6.59375 9.308594 L 12.78125 8.734375 L 13.441406 14.796875 L 7.257812 15.371094 Z M 6.59375 9.308594 " clip-rule="nonzero"/></clipPath><clipPath id="06f8fc0bd9"><path d="M 7.175781 14.414062 C 7.265625 14.023438 8.230469 9.824219 8.320312 9.546875 C 8.667969 8.457031 12.191406 9.488281 12.351562 9.8125 C 12.621094 10.351562 12.996094 10.175781 12.953125 10.765625 C 12.84375 12.191406 13.054688 12.273438 12.675781 12.660156 C 11.582031 13.777344 10.390625 14.066406 10.109375 14.769531 C 9.910156 15.277344 8.589844 15.460938 7.175781 14.414062 Z M 7.175781 14.414062 " clip-rule="evenodd"/></clipPath><clipPath id="2e2a6605d7"><path d="M 9 9 L 12 9 L 12 12 L 9 12 Z M 9 9 " clip-rule="nonzero"/></clipPath><clipPath id="e61527efce"><path d="M 6.59375 9.308594 L 12.78125 8.734375 L 13.441406 14.796875 L 7.257812 15.371094 Z M 6.59375 9.308594 " clip-rule="nonzero"/></clipPath><clipPath id="b2cd7445f1"><path d="M 7.175781 14.414062 C 7.265625 14.023438 8.230469 9.824219 8.320312 9.546875 C 8.667969 8.457031 12.191406 9.488281 12.351562 9.8125 C 12.621094 10.351562 12.996094 10.175781 12.953125 10.765625 C 12.84375 12.191406 13.054688 12.273438 12.675781 12.660156 C 11.582031 13.777344 10.390625 14.066406 10.109375 14.769531 C 9.910156 15.277344 8.589844 15.460938 7.175781 14.414062 Z M 7.175781 14.414062 " clip-rule="evenodd"/></clipPath><clipPath id="3e29900a44"><path d="M 10 9 L 13 9 L 13 12 L 10 12 Z M 10 9 " clip-rule="nonzero"/></clipPath><clipPath id="886701c920"><path d="M 6.59375 9.308594 L 12.78125 8.734375 L 13.441406 14.796875 L 7.257812 15.371094 Z M 6.59375 9.308594 " clip-rule="nonzero"/></clipPath><clipPath id="93033a6469"><path d="M 7.175781 14.414062 C 7.265625 14.023438 8.230469 9.824219 8.320312 9.546875 C 8.667969 8.457031 12.191406 9.488281 12.351562 9.8125 C 12.621094 10.351562 12.996094 10.175781 12.953125 10.765625 C 12.84375 12.191406 13.054688 12.273438 12.675781 12.660156 C 11.582031 13.777344 10.390625 14.066406 10.109375 14.769531 C 9.910156 15.277344 8.589844 15.460938 7.175781 14.414062 Z M 7.175781 14.414062 " clip-rule="evenodd"/></clipPath><clipPath id="3160050748"><path d="M 36 17 L 38 17 L 38 20 L 36 20 Z M 36 17 " clip-rule="nonzero"/></clipPath><clipPath id="606647c202"><path d="M 37.625 15.632812 L 42.71875 17.488281 L 40.210938 23.339844 L 35.117188 21.484375 Z M 37.625 15.632812 " clip-rule="nonzero"/></clipPath><clipPath id="5b488e80ab"><path d="M 40.195312 22.890625 C 42.21875 18.621094 42.292969 18.625 42.242188 18.230469 C 42.125 17.347656 39.226562 16.148438 39.03125 16.175781 C 38.351562 16.261719 36.03125 17.507812 36.804688 18.570312 C 37.515625 19.550781 36.589844 19.859375 37.296875 20.855469 C 37.589844 21.269531 37.132812 21.75 37.261719 22.042969 C 37.554688 22.6875 39.949219 22.871094 40.195312 22.890625 Z M 40.195312 22.890625 " clip-rule="evenodd"/></clipPath><clipPath id="0bb79ca5c1"><path d="M 36 17 L 40 17 L 40 20 L 36 20 Z M 36 17 " clip-rule="nonzero"/></clipPath><clipPath id="5b4dadb7de"><path d="M 37.625 15.632812 L 42.71875 17.488281 L 40.210938 23.339844 L 35.117188 21.484375 Z M 37.625 15.632812 " clip-rule="nonzero"/></clipPath><clipPath id="5159443d12"><path d="M 40.195312 22.890625 C 42.21875 18.621094 42.292969 18.625 42.242188 18.230469 C 42.125 17.347656 39.226562 16.148438 39.03125 16.175781 C 38.351562 16.261719 36.03125 17.507812 36.804688 18.570312 C 37.515625 19.550781 36.589844 19.859375 37.296875 20.855469 C 37.589844 21.269531 37.132812 21.75 37.261719 22.042969 C 37.554688 22.6875 39.949219 22.871094 40.195312 22.890625 Z M 40.195312 22.890625 " clip-rule="evenodd"/></clipPath><clipPath id="f48e44bda1"><path d="M 37 16 L 40 16 L 40 18 L 37 18 Z M 37 16 " clip-rule="nonzero"/></clipPath><clipPath id="d3187cbbad"><path d="M 37.625 15.632812 L 42.71875 17.488281 L 40.210938 23.339844 L 35.117188 21.484375 Z M 37.625 15.632812 " clip-rule="nonzero"/></clipPath><clipPath id="0a6459615e"><path d="M 40.195312 22.890625 C 42.21875 18.621094 42.292969 18.625 42.242188 18.230469 C 42.125 17.347656 39.226562 16.148438 39.03125 16.175781 C 38.351562 16.261719 36.03125 17.507812 36.804688 18.570312 C 37.515625 19.550781 36.589844 19.859375 37.296875 20.855469 C 37.589844 21.269531 37.132812 21.75 37.261719 22.042969 C 37.554688 22.6875 39.949219 22.871094 40.195312 22.890625 Z M 40.195312 22.890625 " clip-rule="evenodd"/></clipPath><clipPath id="d4663682fc"><path d="M 38 16 L 41 16 L 41 18 L 38 18 Z M 38 16 " clip-rule="nonzero"/></clipPath><clipPath id="2c9a5819ab"><path d="M 37.625 15.632812 L 42.71875 17.488281 L 40.210938 23.339844 L 35.117188 21.484375 Z M 37.625 15.632812 " clip-rule="nonzero"/></clipPath><clipPath id="6b988c9642"><path d="M 40.195312 22.890625 C 42.21875 18.621094 42.292969 18.625 42.242188 18.230469 C 42.125 17.347656 39.226562 16.148438 39.03125 16.175781 C 38.351562 16.261719 36.03125 17.507812 36.804688 18.570312 C 37.515625 19.550781 36.589844 19.859375 37.296875 20.855469 C 37.589844 21.269531 37.132812 21.75 37.261719 22.042969 C 37.554688 22.6875 39.949219 22.871094 40.195312 22.890625 Z M 40.195312 22.890625 " clip-rule="evenodd"/></clipPath></defs><path fill="#a58270" d="M 7.445312 30.195312 C 7.363281 31.664062 7.953125 40.578125 10.335938 42.867188 C 13.332031 45.75 17.121094 44.425781 21.894531 44.308594 C 23.003906 44.28125 34.949219 45.082031 35.480469 44.898438 C 37.390625 44.242188 37.617188 41.578125 38.199219 36.011719 C 38.421875 33.855469 38.601562 28.878906 37.398438 26.214844 C 33.121094 16.753906 17.132812 18.191406 11.921875 23.863281 C 10.503906 25.410156 10.171875 25.894531 9.515625 27.355469 Z M 7.445312 30.195312 " fill-opacity="1" fill-rule="evenodd"/><path fill="#37241f" d="M 16.359375 19.925781 L 7.714844 33.832031 L 12.667969 33.253906 L 11.273438 44.902344 L 35.480469 44.902344 L 31.847656 21.40625 Z M 16.359375 19.925781 " fill-opacity="1" fill-rule="evenodd"/><path fill="#a58270" d="M 8.238281 28.34375 C 8.882812 29.828125 8.363281 29.523438 10.25 29.597656 C 14.4375 29.757812 13.132812 44.675781 18.925781 44.902344 C 21.171875 44.988281 27.28125 45.492188 27.902344 44.902344 C 32.847656 40.203125 32.0625 25.59375 33.777344 31.632812 C 34.011719 32.457031 36.433594 28.082031 37.742188 26.335938 C 38.144531 25.800781 38.71875 25.898438 38.441406 25.390625 C 37.179688 23.046875 35.253906 21.460938 35.09375 20.421875 C 34.910156 19.246094 34.683594 19.339844 33.777344 18.492188 C 32.835938 17.613281 32.144531 15.554688 32.054688 15.28125 C 29.746094 8.410156 30.957031 5.742188 27.972656 2.113281 C 26.300781 0.0820312 22.988281 0.191406 22.492188 0.246094 C 15.328125 1.039062 15.96875 8.007812 15.929688 9.894531 C 15.871094 12.8125 14.585938 18.371094 14.4375 18.402344 C 11.308594 19.128906 8.257812 27.894531 8.238281 27.953125 Z M 8.238281 28.34375 " fill-opacity="1" fill-rule="evenodd"/><path fill="#fec3b1" d="M 7.175781 14.414062 C 7.265625 14.023438 8.230469 9.824219 8.320312 9.546875 C 8.667969 8.457031 12.191406 9.488281 12.351562 9.8125 C 12.621094 10.351562 12.996094 10.175781 12.953125 10.765625 C 12.84375 12.191406 13.054688 12.273438 12.675781 12.660156 C 11.582031 13.777344 10.390625 14.066406 10.109375 14.769531 C 9.910156 15.277344 8.589844 15.460938 7.175781 14.414062 Z M 7.175781 14.414062 " fill-opacity="1" fill-rule="evenodd"/><g clip-path="url(#87ec3595bf)"><g clip-path="url(#7540796462)"><g clip-path="url(#3b23941e80)"><path fill="#ec8479" d="M 12.890625 10.386719 C 12.917969 10.429688 12.90625 10.484375 12.867188 10.507812 C 12.828125 10.535156 12.773438 10.523438 12.746094 10.484375 C 12.6875 10.394531 12.640625 10.347656 12.589844 10.339844 C 12.5625 10.335938 12.535156 10.351562 12.511719 10.371094 C 12.46875 10.40625 12.433594 10.457031 12.398438 10.515625 C 12.203125 10.851562 12.085938 11.484375 12.070312 11.554688 C 12.058594 11.628906 12.027344 11.679688 11.992188 11.710938 C 11.957031 11.742188 11.910156 11.761719 11.851562 11.773438 C 11.65625 11.816406 11.269531 11.804688 10.613281 12.546875 C 10.582031 12.582031 10.527344 12.585938 10.492188 12.550781 C 10.457031 12.515625 10.453125 12.460938 10.484375 12.425781 C 11.089844 11.742188 11.484375 11.660156 11.714844 11.617188 C 11.757812 11.609375 11.792969 11.605469 11.824219 11.597656 C 11.847656 11.59375 11.863281 11.585938 11.878906 11.574219 C 11.890625 11.5625 11.898438 11.542969 11.902344 11.515625 C 11.917969 11.441406 12.042969 10.777344 12.25 10.421875 C 12.304688 10.324219 12.367188 10.25 12.433594 10.207031 C 12.488281 10.171875 12.550781 10.15625 12.609375 10.164062 C 12.695312 10.175781 12.792969 10.238281 12.890625 10.386719 Z M 12.890625 10.386719 " fill-opacity="1" fill-rule="evenodd"/></g></g></g><g clip-path="url(#c6736092f6)"><g clip-path="url(#ed4759fe6f)"><g clip-path="url(#12e4f146e6)"><path fill="#ec8479" d="M 10.332031 13.398438 C 10.339844 13.449219 10.304688 13.492188 10.253906 13.496094 C 10.207031 13.5 10.164062 13.460938 10.160156 13.414062 C 10.050781 12.308594 10.09375 12.195312 9.402344 11.1875 C 9.375 11.144531 9.386719 11.089844 9.425781 11.0625 C 9.464844 11.035156 9.515625 11.046875 9.546875 11.085938 C 10.257812 12.132812 10.21875 12.253906 10.332031 13.398438 Z M 10.332031 13.398438 " fill-opacity="1" fill-rule="evenodd"/></g></g></g><g clip-path="url(#57d2c2786c)"><g clip-path="url(#e78c9055d0)"><g clip-path="url(#06f8fc0bd9)"><path fill="#ec8479" d="M 10.066406 12.085938 C 10.019531 12.085938 9.980469 12.046875 9.976562 12 C 9.972656 11.949219 10.007812 11.910156 10.054688 11.90625 C 10.101562 11.90625 10.167969 11.910156 10.230469 11.90625 C 10.277344 11.898438 10.328125 11.890625 10.367188 11.851562 C 10.410156 11.8125 10.441406 11.746094 10.453125 11.636719 C 10.46875 11.507812 10.453125 11.332031 10.40625 11.082031 C 10.398438 11.046875 10.375 11.007812 10.34375 10.972656 C 10.28125 10.902344 10.1875 10.835938 10.074219 10.769531 C 9.617188 10.5 8.890625 10.285156 8.789062 10.253906 C 8.742188 10.238281 8.714844 10.191406 8.726562 10.144531 C 8.738281 10.097656 8.789062 10.070312 8.832031 10.082031 C 8.9375 10.113281 9.6875 10.335938 10.160156 10.617188 C 10.289062 10.691406 10.398438 10.773438 10.46875 10.855469 C 10.527344 10.917969 10.5625 10.984375 10.574219 11.050781 C 10.628906 11.324219 10.640625 11.519531 10.625 11.660156 C 10.605469 11.824219 10.550781 11.925781 10.484375 11.984375 C 10.417969 12.050781 10.332031 12.074219 10.25 12.082031 C 10.183594 12.085938 10.117188 12.082031 10.066406 12.085938 Z M 10.066406 12.085938 " fill-opacity="1" fill-rule="evenodd"/></g></g></g><g clip-path="url(#2e2a6605d7)"><g clip-path="url(#e61527efce)"><g clip-path="url(#b2cd7445f1)"><path fill="#ec8479" d="M 10.527344 11.761719 C 10.484375 11.742188 10.46875 11.6875 10.488281 11.644531 C 10.507812 11.601562 10.558594 11.582031 10.601562 11.605469 C 10.757812 11.683594 10.875 11.691406 10.964844 11.648438 C 11.054688 11.609375 11.113281 11.519531 11.15625 11.421875 C 11.25 11.203125 11.257812 10.933594 11.261719 10.917969 C 11.269531 10.847656 11.246094 10.804688 11.167969 10.742188 C 10.992188 10.609375 10.617188 10.425781 9.867188 9.996094 C 9.824219 9.972656 9.808594 9.917969 9.832031 9.875 C 9.855469 9.832031 9.90625 9.816406 9.949219 9.839844 C 10.710938 10.277344 11.09375 10.464844 11.269531 10.601562 C 11.359375 10.667969 11.402344 10.730469 11.421875 10.796875 C 11.4375 10.839844 11.441406 10.886719 11.433594 10.945312 C 11.429688 10.960938 11.421875 11.257812 11.3125 11.5 C 11.253906 11.632812 11.164062 11.753906 11.039062 11.8125 C 10.914062 11.871094 10.746094 11.875 10.527344 11.761719 Z M 10.527344 11.761719 " fill-opacity="1" fill-rule="evenodd"/></g></g></g><g clip-path="url(#3e29900a44)"><g clip-path="url(#886701c920)"><g clip-path="url(#93033a6469)"><path fill="#ec8479" d="M 11.234375 11.53125 C 11.1875 11.519531 11.164062 11.46875 11.175781 11.421875 C 11.1875 11.375 11.234375 11.347656 11.28125 11.363281 C 11.328125 11.378906 11.628906 11.472656 11.839844 11.304688 C 11.925781 11.234375 11.996094 11.113281 12.023438 10.917969 C 12.058594 10.675781 11.96875 10.496094 11.777344 10.332031 C 11.570312 10.144531 11.25 9.980469 10.847656 9.785156 C 10.804688 9.765625 10.785156 9.710938 10.804688 9.667969 C 10.824219 9.621094 10.875 9.601562 10.917969 9.625 C 11.339844 9.828125 11.671875 10.003906 11.890625 10.195312 C 12.128906 10.40625 12.238281 10.640625 12.195312 10.949219 C 12.160156 11.199219 12.0625 11.351562 11.949219 11.445312 C 11.679688 11.664062 11.296875 11.550781 11.234375 11.53125 Z M 11.234375 11.53125 " fill-opacity="1" fill-rule="evenodd"/></g></g></g><path fill="#fec3b1" d="M 9.765625 6.675781 C 9.964844 6.691406 12.214844 6.847656 12.238281 6.722656 C 12.257812 6.621094 9.535156 4.855469 8.480469 5.628906 C 8.375 5.707031 7.609375 6.527344 9.765625 6.675781 Z M 9.765625 6.675781 " fill-opacity="1" fill-rule="evenodd"/><path fill="#fec3b1" d="M 13.054688 6.410156 C 12.847656 6.207031 10.308594 3.71875 12.015625 3.054688 C 12.292969 2.945312 13.308594 2.757812 13.054688 6.410156 Z M 13.054688 6.410156 " fill-opacity="1" fill-rule="evenodd"/><path fill="#fec3b1" d="M 37.640625 15.640625 C 37.445312 15.449219 35.640625 13.671875 36.328125 12.578125 C 36.46875 12.351562 37.351562 12.222656 37.640625 15.640625 Z M 37.640625 15.640625 " fill-opacity="1" fill-rule="evenodd"/><path fill="#fec3b1" d="M 38.808594 15.382812 C 38.796875 15.085938 38.707031 12.878906 40.007812 11.84375 C 40.703125 11.289062 41.089844 11.777344 41.070312 12.203125 C 41.039062 12.902344 39.019531 15.148438 38.808594 15.382812 Z M 38.808594 15.382812 " fill-opacity="1" fill-rule="evenodd"/><path fill="#fec3b1" d="M 40.195312 22.890625 C 42.21875 18.621094 42.292969 18.625 42.242188 18.230469 C 42.125 17.347656 39.226562 16.148438 39.03125 16.175781 C 38.351562 16.261719 36.03125 17.507812 36.804688 18.570312 C 37.515625 19.550781 36.589844 19.859375 37.292969 20.855469 C 37.589844 21.269531 37.132812 21.75 37.261719 22.042969 C 37.554688 22.6875 39.949219 22.871094 40.195312 22.890625 Z M 40.195312 22.890625 " fill-opacity="1" fill-rule="evenodd"/><g clip-path="url(#3160050748)"><g clip-path="url(#606647c202)"><g clip-path="url(#5b488e80ab)"><path fill="#ec8479" d="M 37.136719 19.925781 C 37.121094 19.972656 37.070312 19.996094 37.019531 19.984375 C 36.972656 19.972656 36.945312 19.921875 36.960938 19.875 C 37.046875 19.625 37.078125 19.636719 37.558594 17.964844 C 37.574219 17.917969 37.625 17.890625 37.671875 17.902344 C 37.71875 17.914062 37.75 17.960938 37.734375 18.007812 C 37.25 19.683594 37.222656 19.675781 37.136719 19.925781 Z M 37.136719 19.925781 " fill-opacity="1" fill-rule="evenodd"/></g></g></g><g clip-path="url(#0bb79ca5c1)"><g clip-path="url(#5b4dadb7de)"><g clip-path="url(#5159443d12)"><path fill="#ec8479" d="M 37.195312 18.875 C 37.234375 18.90625 37.242188 18.960938 37.210938 19 C 37.179688 19.035156 37.121094 19.046875 37.082031 19.015625 C 36.570312 18.652344 36.371094 17.835938 37.039062 17.378906 C 37.285156 17.210938 37.585938 17.238281 37.914062 17.382812 C 38.355469 17.578125 38.847656 17.984375 39.28125 18.273438 C 39.320312 18.300781 39.332031 18.355469 39.300781 18.394531 C 39.269531 18.4375 39.214844 18.445312 39.171875 18.417969 C 38.746094 18.132812 38.265625 17.734375 37.832031 17.542969 C 37.574219 17.429688 37.335938 17.386719 37.140625 17.519531 C 36.585938 17.898438 36.769531 18.574219 37.195312 18.875 Z M 37.195312 18.875 " fill-opacity="1" fill-rule="evenodd"/></g></g></g><g clip-path="url(#f48e44bda1)"><g clip-path="url(#d3187cbbad)"><g clip-path="url(#0a6459615e)"><path fill="#ec8479" d="M 37.242188 17.300781 C 37.214844 17.339844 37.15625 17.351562 37.113281 17.328125 C 37.074219 17.300781 37.0625 17.25 37.089844 17.207031 C 37.273438 16.945312 37.480469 16.804688 37.695312 16.738281 C 38.015625 16.644531 38.359375 16.726562 38.671875 16.878906 C 39.167969 17.121094 39.597656 17.539062 39.75 17.648438 C 39.789062 17.675781 39.796875 17.730469 39.765625 17.769531 C 39.734375 17.808594 39.675781 17.816406 39.636719 17.789062 C 39.488281 17.679688 39.070312 17.269531 38.585938 17.035156 C 38.3125 16.902344 38.019531 16.824219 37.746094 16.90625 C 37.566406 16.957031 37.394531 17.082031 37.242188 17.300781 Z M 37.242188 17.300781 " fill-opacity="1" fill-rule="evenodd"/></g></g></g><g clip-path="url(#d4663682fc)"><g clip-path="url(#2c9a5819ab)"><g clip-path="url(#6b988c9642)"><path fill="#ec8479" d="M 38.191406 16.71875 C 38.164062 16.761719 38.109375 16.773438 38.066406 16.746094 C 38.023438 16.722656 38.011719 16.667969 38.042969 16.625 C 38.351562 16.175781 38.84375 16.195312 39.328125 16.402344 C 39.992188 16.691406 40.632812 17.332031 40.640625 17.335938 C 40.675781 17.367188 40.675781 17.421875 40.640625 17.457031 C 40.605469 17.492188 40.550781 17.496094 40.511719 17.464844 C 40.507812 17.460938 39.890625 16.839844 39.246094 16.5625 C 38.855469 16.394531 38.449219 16.347656 38.191406 16.71875 Z M 38.191406 16.71875 " fill-opacity="1" fill-rule="evenodd"/></g></g></g><path fill="#37241f" d="M 37.542969 21.4375 C 36.441406 21.109375 36.097656 23.71875 36.039062 23.734375 C 34.71875 24.101562 33.875 26.523438 32.476562 29.859375 C 31.675781 31.769531 30.734375 35.136719 31.109375 36.105469 C 32.476562 39.640625 37.976562 36.902344 38.796875 34.222656 C 39.578125 31.65625 38.492188 32.386719 40.171875 29.707031 C 40.964844 28.441406 40.542969 26.867188 40.542969 25.261719 C 40.542969 24.664062 41.65625 23.140625 41.15625 22.503906 C 40.65625 21.867188 38.796875 21.804688 37.542969 21.4375 Z M 37.542969 21.4375 " fill-opacity="1" fill-rule="evenodd"/><path fill="#37241f" d="M 10.480469 14.433594 C 11.714844 14.445312 10.933594 17.097656 10.980469 17.132812 C 12.132812 17.886719 11.929688 20.511719 11.878906 24.191406 C 11.851562 26.300781 10.75 30.640625 10.515625 31.644531 C 9.832031 34.5625 5.578125 34.5 3.984375 31.820312 C 3.121094 30.363281 3.671875 28.410156 3.730469 26.550781 C 3.820312 23.820312 4.824219 24.847656 4.308594 21.726562 C 4.066406 20.25 5.164062 18.835938 5.855469 17.265625 C 6.113281 16.683594 5.664062 14.863281 6.433594 14.390625 C 7.203125 13.917969 9.078125 14.417969 10.480469 14.433594 Z M 10.480469 14.433594 " fill-opacity="1" fill-rule="evenodd"/><path fill="#fec3b1" d="M 18.015625 10.25 C 17.976562 9.773438 18.097656 8.199219 19 6.609375 C 19.546875 5.640625 20.835938 4.1875 21.257812 4.269531 C 23.820312 4.75 24.828125 5.667969 25.378906 6.09375 C 26.03125 6.589844 27.253906 8.074219 27.636719 9.472656 C 27.636719 9.472656 28.058594 11.035156 27.84375 11.636719 C 27.164062 13.535156 25.492188 14.828125 23.90625 15.132812 C 21.6875 15.558594 19.71875 14.210938 18.777344 13.238281 C 18.382812 12.824219 18.015625 10.25 18.015625 10.25 Z M 18.015625 10.25 " fill-opacity="1" fill-rule="evenodd"/><path fill="#000000" d="M 16.066406 4.460938 C 15.882812 3.140625 28.222656 2.105469 28.917969 2.738281 C 29.363281 3.140625 29.65625 3.839844 29.714844 3.929688 C 30.589844 5.246094 30.964844 8.46875 30.839844 8.589844 C 30.703125 8.722656 28.238281 7.207031 27.59375 7.210938 C 23.851562 7.246094 18.007812 8.328125 17.578125 8.316406 C 16.613281 8.292969 15.503906 11.453125 15.28125 9.71875 C 15.089844 8.257812 15.964844 4.621094 16.066406 4.460938 Z M 16.066406 4.460938 " fill-opacity="1" fill-rule="evenodd"/><path fill="#000000" d="M 16.367188 9.058594 C 17.308594 11.722656 13.613281 28.589844 16.367188 29.925781 C 16.785156 30.128906 24.070312 29.820312 29.792969 29.183594 C 31.074219 29.039062 31.039062 24.617188 29.792969 14.15625 C 29.621094 12.695312 29.613281 9.195312 28.128906 5.753906 C 27.894531 6.664062 27.945312 7.507812 27.546875 8.015625 C 26.859375 8.886719 19.21875 9.578125 18.566406 9.464844 C 16.710938 9.148438 16.832031 6.851562 16.101562 8.433594 Z M 16.367188 9.058594 " fill-opacity="1" fill-rule="evenodd"/></svg>