<svg xmlns="http://www.w3.org/2000/svg" xmlns:xlink="http://www.w3.org/1999/xlink" width="60" zoomAndPan="magnify" viewBox="0 0 45 44.999999" height="60" preserveAspectRatio="xMidYMid meet" version="1.0"><defs><clipPath id="f5a9a2f6ea"><path d="M 8 4 L 38.261719 4 L 38.261719 43.726562 L 8 43.726562 Z M 8 4 " clip-rule="nonzero"/></clipPath><clipPath id="329eafa3d2"><path d="M 6.761719 11 L 8 11 L 8 13 L 6.761719 13 Z M 6.761719 11 " clip-rule="nonzero"/></clipPath><clipPath id="ac49521c8d"><path d="M 6.761719 19 L 8 19 L 8 22 L 6.761719 22 Z M 6.761719 19 " clip-rule="nonzero"/></clipPath><clipPath id="cacadaee2d"><path d="M 6.761719 27 L 8 27 L 8 30 L 6.761719 30 Z M 6.761719 27 " clip-rule="nonzero"/></clipPath><clipPath id="d998a7f32e"><path d="M 6.761719 35 L 8 35 L 8 38 L 6.761719 38 Z M 6.761719 35 " clip-rule="nonzero"/></clipPath><clipPath id="986721156f"><path d="M 6.761719 2 L 13 2 L 13 5 L 6.761719 5 Z M 6.761719 2 " clip-rule="nonzero"/></clipPath><clipPath id="c314d9b147"><path d="M 6.761719 2 L 37 2 L 37 43 L 6.761719 43 Z M 6.761719 2 " clip-rule="nonzero"/></clipPath><clipPath id="7433b2b642"><path d="M 6.761719 31 L 8 31 L 8 34 L 6.761719 34 Z M 6.761719 31 " clip-rule="nonzero"/></clipPath><clipPath id="e05b935b80"><path d="M 6.761719 23 L 8 23 L 8 26 L 6.761719 26 Z M 6.761719 23 " clip-rule="nonzero"/></clipPath><clipPath id="9e59ced0e6"><path d="M 6.761719 15 L 8 15 L 8 18 L 6.761719 18 Z M 6.761719 15 " clip-rule="nonzero"/></clipPath><clipPath id="6a596d52b6"><path d="M 6.761719 7 L 8 7 L 8 9 L 6.761719 9 Z M 6.761719 7 " clip-rule="nonzero"/></clipPath><clipPath id="7aeda95cb4"><path d="M 8 4 L 38.261719 4 L 38.261719 43.726562 L 8 43.726562 Z M 8 4 " clip-rule="nonzero"/></clipPath><clipPath id="ad01feb332"><path d="M 6.761719 37 L 9 37 L 9 41 L 6.761719 41 Z M 6.761719 37 " clip-rule="nonzero"/></clipPath><clipPath id="bafb5c19b0"><path d="M 6.761719 33 L 9 33 L 9 37 L 6.761719 37 Z M 6.761719 33 " clip-rule="nonzero"/></clipPath><clipPath id="36c8c41b5e"><path d="M 6.761719 29 L 9 29 L 9 33 L 6.761719 33 Z M 6.761719 29 " clip-rule="nonzero"/></clipPath><clipPath id="c2d9c90df8"><path d="M 6.761719 24 L 9 24 L 9 29 L 6.761719 29 Z M 6.761719 24 " clip-rule="nonzero"/></clipPath><clipPath id="c17a055cee"><path d="M 6.761719 20 L 9 20 L 9 24 L 6.761719 24 Z M 6.761719 20 " clip-rule="nonzero"/></clipPath><clipPath id="9a449b293c"><path d="M 6.761719 16 L 9 16 L 9 20 L 6.761719 20 Z M 6.761719 16 " clip-rule="nonzero"/></clipPath><clipPath id="7a24bdb478"><path d="M 6.761719 12 L 9 12 L 9 16 L 6.761719 16 Z M 6.761719 12 " clip-rule="nonzero"/></clipPath><clipPath id="ea402cf3a6"><path d="M 6.761719 8 L 9 8 L 9 12 L 6.761719 12 Z M 6.761719 8 " clip-rule="nonzero"/></clipPath><clipPath id="6c45239026"><path d="M 6.761719 4 L 9 4 L 9 8 L 6.761719 8 Z M 6.761719 4 " clip-rule="nonzero"/></clipPath><clipPath id="222062b143"><path d="M 12 0.976562 L 32 0.976562 L 32 7 L 12 7 Z M 12 0.976562 " clip-rule="nonzero"/></clipPath></defs><g clip-path="url(#f5a9a2f6ea)"><path fill="#7c4d4d" d="M 8.578125 42.421875 C 8.578125 42.421875 8.394531 43.855469 10.257812 43.855469 L 36.847656 43.882812 C 36.847656 43.882812 37.949219 43.675781 38.066406 42.40625 L 37.957031 5.226562 C 37.957031 5.226562 37.289062 4.175781 36.792969 4.453125 C 36.238281 4.761719 36.542969 40.757812 36.542969 40.757812 C 36.542969 40.757812 36.667969 42.214844 35.488281 42.359375 " fill-opacity="1" fill-rule="nonzero"/></g><g clip-path="url(#329eafa3d2)"><path stroke-linecap="round" transform="matrix(0.0684273, 0, 0, 0.0684273, 6.828271, 0.979516)" fill="none" stroke-linejoin="round" d="M 2.738004 171.729008 L 2.738004 151.406345 " stroke="#a45156" stroke-width="5" stroke-opacity="1" stroke-miterlimit="10"/></g><g clip-path="url(#ac49521c8d)"><path stroke-linecap="round" transform="matrix(0.0684273, 0, 0, 0.0684273, 6.828271, 0.979516)" fill="none" stroke-linejoin="round" d="M 2.738004 292.979951 L 2.738004 273.570667 " stroke="#a45156" stroke-width="5" stroke-opacity="1" stroke-miterlimit="10"/></g><g clip-path="url(#cacadaee2d)"><path stroke-linecap="round" transform="matrix(0.0684273, 0, 0, 0.0684273, 6.828271, 0.979516)" fill="none" stroke-linejoin="round" d="M 2.738004 413.203344 L 2.738004 393.794059 " stroke="#a45156" stroke-width="5" stroke-opacity="1" stroke-miterlimit="10"/></g><g clip-path="url(#d998a7f32e)"><path stroke-linecap="round" transform="matrix(0.0684273, 0, 0, 0.0684273, 6.828271, 0.979516)" fill="none" stroke-linejoin="round" d="M 2.738004 533.483823 L 2.738004 514.074538 " stroke="#a45156" stroke-width="5" stroke-opacity="1" stroke-miterlimit="10"/></g><g clip-path="url(#986721156f)"><path stroke-linecap="round" transform="matrix(0.0684273, 0, 0, 0.0684273, 6.828271, 0.979516)" fill="none" stroke-linejoin="round" d="M 2.738004 50.535151 C 1.938798 39.003753 10.501718 28.956594 21.633513 29.01368 C 21.633513 29.01368 76.207855 29.01368 76.207855 29.01368 " stroke="#a45156" stroke-width="5" stroke-opacity="1" stroke-miterlimit="10"/></g><g clip-path="url(#c314d9b147)"><path stroke-linecap="round" transform="matrix(0.0684273, 0, 0, 0.0684273, 6.828271, 0.979516)" fill="none" stroke-linejoin="round" d="M 2.738004 574.186235 C 1.482109 588.743198 4.678932 604.49897 21.633513 605.012746 C 25.172853 605.697779 411.760135 604.556056 415.413648 605.012746 C 425.803324 605.012746 434.252071 596.164395 434.252071 585.260944 L 434.252071 50.306807 C 434.994191 38.889581 426.431271 28.899508 415.413648 29.01368 C 415.413648 29.01368 358.327516 29.01368 358.327516 29.01368 " stroke="#a45156" stroke-width="5" stroke-opacity="1" stroke-miterlimit="10"/></g><g clip-path="url(#7433b2b642)"><path stroke-linecap="round" transform="matrix(0.0684273, 0, 0, 0.0684273, 6.828271, 0.979516)" fill="none" stroke-linejoin="round" d="M 2.738004 473.31504 L 2.738004 453.962842 " stroke="#a45156" stroke-width="5" stroke-opacity="1" stroke-miterlimit="10"/></g><g clip-path="url(#e05b935b80)"><path stroke-linecap="round" transform="matrix(0.0684273, 0, 0, 0.0684273, 6.828271, 0.979516)" fill="none" stroke-linejoin="round" d="M 2.738004 353.091648 L 2.738004 333.682363 " stroke="#a45156" stroke-width="5" stroke-opacity="1" stroke-miterlimit="10"/></g><g clip-path="url(#9e59ced0e6)"><path stroke-linecap="round" transform="matrix(0.0684273, 0, 0, 0.0684273, 6.828271, 0.979516)" fill="none" stroke-linejoin="round" d="M 2.738004 232.868255 L 2.738004 212.488506 " stroke="#a45156" stroke-width="5" stroke-opacity="1" stroke-miterlimit="10"/></g><g clip-path="url(#6a596d52b6)"><path stroke-linecap="round" transform="matrix(0.0684273, 0, 0, 0.0684273, 6.828271, 0.979516)" fill="none" stroke-linejoin="round" d="M 2.738004 110.646848 L 2.738004 91.237563 " stroke="#a45156" stroke-width="5" stroke-opacity="1" stroke-miterlimit="10"/></g><g clip-path="url(#7aeda95cb4)"><path stroke-linecap="round" transform="matrix(0.0684273, 0, 0, 0.0684273, 6.828271, 0.979516)" fill="none" stroke-linejoin="round" d="M 434.252071 50.306807 C 445.726383 48.993826 456.572748 57.556745 456.515662 70.058608 C 456.515662 70.058608 456.515662 606.611157 456.515662 606.611157 C 456.515662 617.514608 448.066915 626.362959 437.620153 626.362959 L 43.840018 626.362959 C 32.822395 626.362959 24.202389 616.429972 25.001595 605.012746 " stroke="#a45156" stroke-width="5" stroke-opacity="1" stroke-miterlimit="10"/></g><g clip-path="url(#ad01feb332)"><path stroke-linecap="round" transform="matrix(0.0684273, 0, 0, 0.0684273, 6.828271, 0.979516)" fill="none" stroke-linejoin="round" d="M 2.738004 533.483823 L 22.204375 533.483823 L 22.204375 574.186235 L 2.738004 574.186235 " stroke="#a45156" stroke-width="5" stroke-opacity="1" stroke-miterlimit="10"/></g><g clip-path="url(#bafb5c19b0)"><path stroke-linecap="round" transform="matrix(0.0684273, 0, 0, 0.0684273, 6.828271, 0.979516)" fill="none" stroke-linejoin="round" d="M 2.738004 473.31504 L 22.204375 473.31504 L 22.204375 514.074538 L 2.738004 514.074538 " stroke="#a45156" stroke-width="5" stroke-opacity="1" stroke-miterlimit="10"/></g><g clip-path="url(#36c8c41b5e)"><path stroke-linecap="round" transform="matrix(0.0684273, 0, 0, 0.0684273, 6.828271, 0.979516)" fill="none" stroke-linejoin="round" d="M 2.738004 413.203344 L 22.204375 413.203344 L 22.204375 453.962842 L 2.738004 453.962842 " stroke="#a45156" stroke-width="5" stroke-opacity="1" stroke-miterlimit="10"/></g><g clip-path="url(#c2d9c90df8)"><path stroke-linecap="round" transform="matrix(0.0684273, 0, 0, 0.0684273, 6.828271, 0.979516)" fill="none" stroke-linejoin="round" d="M 2.738004 353.091648 L 22.204375 353.091648 L 22.204375 393.794059 L 2.738004 393.794059 " stroke="#a45156" stroke-width="5" stroke-opacity="1" stroke-miterlimit="10"/></g><g clip-path="url(#c17a055cee)"><path stroke-linecap="round" transform="matrix(0.0684273, 0, 0, 0.0684273, 6.828271, 0.979516)" fill="none" stroke-linejoin="round" d="M 2.738004 292.979951 L 22.204375 292.979951 L 22.204375 333.682363 L 2.738004 333.682363 " stroke="#a45156" stroke-width="5" stroke-opacity="1" stroke-miterlimit="10"/></g><g clip-path="url(#9a449b293c)"><path stroke-linecap="round" transform="matrix(0.0684273, 0, 0, 0.0684273, 6.828271, 0.979516)" fill="none" stroke-linejoin="round" d="M 2.738004 232.868255 L 22.204375 232.868255 L 22.204375 273.570667 L 2.738004 273.570667 " stroke="#a45156" stroke-width="5" stroke-opacity="1" stroke-miterlimit="10"/></g><g clip-path="url(#7a24bdb478)"><path stroke-linecap="round" transform="matrix(0.0684273, 0, 0, 0.0684273, 6.828271, 0.979516)" fill="none" stroke-linejoin="round" d="M 2.738004 171.729008 L 22.204375 171.729008 L 22.204375 212.488506 L 2.738004 212.488506 " stroke="#a45156" stroke-width="5" stroke-opacity="1" stroke-miterlimit="10"/></g><g clip-path="url(#ea402cf3a6)"><path stroke-linecap="round" transform="matrix(0.0684273, 0, 0, 0.0684273, 6.828271, 0.979516)" fill="none" stroke-linejoin="round" d="M 2.738004 110.646848 L 22.204375 110.646848 L 22.204375 151.406345 L 2.738004 151.406345 " stroke="#a45156" stroke-width="5" stroke-opacity="1" stroke-miterlimit="10"/></g><g clip-path="url(#6c45239026)"><path stroke-linecap="round" transform="matrix(0.0684273, 0, 0, 0.0684273, 6.828271, 0.979516)" fill="none" stroke-linejoin="round" d="M 2.738004 50.535151 L 22.204375 50.535151 L 22.204375 91.237563 L 2.738004 91.237563 " stroke="#a45156" stroke-width="5" stroke-opacity="1" stroke-miterlimit="10"/></g><g clip-path="url(#222062b143)"><path fill="#7c4d4d" d="M 12.125 0.980469 L 31.433594 0.980469 L 31.433594 6.421875 L 12.125 6.421875 Z M 12.125 0.980469 " fill-opacity="1" fill-rule="nonzero"/></g><path stroke-linecap="round" transform="matrix(0.0684273, 0, 0, 0.0684273, 6.828271, 0.979516)" fill="none" stroke-linejoin="round" d="M 80.831832 154.603169 L 375.6817 154.603169 " stroke="#ce9278" stroke-width="3" stroke-opacity="1" stroke-miterlimit="10"/><path stroke-linecap="round" transform="matrix(0.0684273, 0, 0, 0.0684273, 6.828271, 0.979516)" fill="none" stroke-linejoin="round" d="M 80.831832 229.728518 L 375.6817 229.728518 " stroke="#ce9278" stroke-width="3" stroke-opacity="1" stroke-miterlimit="10"/><path stroke-linecap="round" transform="matrix(0.0684273, 0, 0, 0.0684273, 6.828271, 0.979516)" fill="none" stroke-linejoin="round" d="M 80.831832 304.796781 L 375.6817 304.796781 " stroke="#ce9278" stroke-width="3" stroke-opacity="1" stroke-miterlimit="10"/><path stroke-linecap="round" transform="matrix(0.0684273, 0, 0, 0.0684273, 6.828271, 0.979516)" fill="none" stroke-linejoin="round" d="M 80.831832 379.922129 L 375.6817 379.922129 " stroke="#ce9278" stroke-width="3" stroke-opacity="1" stroke-miterlimit="10"/><path stroke-linecap="round" transform="matrix(0.0684273, 0, 0, 0.0684273, 6.828271, 0.979516)" fill="none" stroke-linejoin="round" d="M 80.831832 455.047478 L 375.6817 455.047478 " stroke="#ce9278" stroke-width="3" stroke-opacity="1" stroke-miterlimit="10"/><path stroke-linecap="round" transform="matrix(0.0684273, 0, 0, 0.0684273, 6.828271, 0.979516)" fill="none" stroke-linejoin="round" d="M 80.831832 530.115741 L 375.6817 530.115741 " stroke="#ce9278" stroke-width="3" stroke-opacity="1" stroke-miterlimit="10"/></svg>