<svg xmlns="http://www.w3.org/2000/svg" xmlns:xlink="http://www.w3.org/1999/xlink" width="60" zoomAndPan="magnify" viewBox="0 0 45 44.999999" height="60" preserveAspectRatio="xMidYMid meet" version="1.0"><defs><clipPath id="d9a7c5d27b"><path d="M 0 6 L 45 6 L 45 39.816406 L 0 39.816406 Z M 0 6 " clip-rule="nonzero"/></clipPath><clipPath id="7958a57ee4"><path d="M 0 36 L 45 36 L 45 39.816406 L 0 39.816406 Z M 0 36 " clip-rule="nonzero"/></clipPath></defs><g clip-path="url(#d9a7c5d27b)"><path fill="#f4eade" d="M 22.5 8.503906 C 13.601562 5.3125 3.027344 7.710938 0.542969 8.355469 C 0.222656 8.441406 0 8.730469 0 9.0625 L 0 38.894531 C 0 39.371094 0.4375 39.71875 0.894531 39.605469 C 3.882812 38.867188 13.796875 36.820312 22.273438 39.761719 C 22.421875 39.8125 22.582031 39.8125 22.726562 39.761719 C 31.207031 36.820312 41.121094 38.867188 44.105469 39.605469 C 44.5625 39.71875 45 39.371094 45 38.894531 L 45 9.0625 C 45 8.730469 44.78125 8.441406 44.460938 8.355469 C 41.976562 7.710938 31.402344 5.3125 22.5 8.503906 Z M 22.5 8.503906 " fill-opacity="1" fill-rule="nonzero"/></g><path fill="#aa9f9f" d="M 30.578125 28.507812 L 28.15625 30.292969 C 27.894531 30.492188 27.53125 30.265625 27.589844 29.945312 L 28.121094 26.972656 Z M 30.578125 28.507812 " fill-opacity="1" fill-rule="nonzero"/><path fill="#c07055" d="M 5.78125 29.578125 L 5.84375 31.035156 C 5.859375 31.441406 5.546875 31.78125 5.144531 31.796875 L 3.695312 31.855469 C 3.292969 31.871094 2.957031 31.558594 2.941406 31.15625 L 2.882812 29.703125 C 2.867188 29.300781 3.175781 28.960938 3.578125 28.945312 L 5.023438 28.882812 C 5.425781 28.867188 5.761719 29.175781 5.78125 29.578125 Z M 5.78125 29.578125 " fill-opacity="1" fill-rule="nonzero"/><path fill="#c07055" d="M 5.78125 24.476562 L 5.84375 25.933594 C 5.859375 26.339844 5.546875 26.679688 5.144531 26.695312 L 3.695312 26.753906 C 3.292969 26.769531 2.957031 26.457031 2.941406 26.054688 L 2.882812 24.601562 C 2.867188 24.199219 3.175781 23.859375 3.578125 23.84375 L 5.023438 23.78125 C 5.425781 23.765625 5.761719 24.078125 5.78125 24.476562 Z M 5.78125 24.476562 " fill-opacity="1" fill-rule="nonzero"/><path fill="#c07055" d="M 5.78125 19.375 L 5.84375 20.832031 C 5.859375 21.238281 5.546875 21.578125 5.144531 21.59375 L 3.695312 21.652344 C 3.292969 21.667969 2.957031 21.355469 2.941406 20.953125 L 2.882812 19.5 C 2.867188 19.097656 3.175781 18.757812 3.578125 18.742188 L 5.023438 18.679688 C 5.425781 18.664062 5.761719 18.976562 5.78125 19.375 Z M 5.78125 19.375 " fill-opacity="1" fill-rule="nonzero"/><g clip-path="url(#7958a57ee4)"><path fill="#f5d6c2" d="M 22.273438 39.761719 C 13.796875 36.820312 3.882812 38.867188 0.894531 39.605469 C 0.4375 39.71875 0 39.371094 0 38.894531 L 0 37.65625 C 0 37.65625 12.339844 34.011719 22.5 37.65625 C 32.664062 34.011719 45 37.65625 45 37.65625 L 45 38.894531 C 45 39.371094 44.5625 39.71875 44.105469 39.605469 C 41.121094 38.867188 31.207031 36.820312 22.726562 39.761719 C 22.582031 39.8125 22.421875 39.8125 22.273438 39.761719 Z M 22.273438 39.761719 " fill-opacity="1" fill-rule="nonzero"/></g><path fill="#f4eade" d="M 17.9375 13.480469 C 17.9375 13.625 17.910156 13.765625 17.851562 13.898438 C 17.796875 14.035156 17.71875 14.152344 17.617188 14.253906 C 17.515625 14.355469 17.398438 14.4375 17.265625 14.492188 C 17.128906 14.546875 16.992188 14.574219 16.847656 14.574219 C 16.703125 14.574219 16.5625 14.546875 16.429688 14.492188 C 16.296875 14.4375 16.179688 14.355469 16.078125 14.253906 C 15.976562 14.152344 15.898438 14.035156 15.839844 13.898438 C 15.785156 13.765625 15.757812 13.625 15.757812 13.480469 C 15.757812 13.335938 15.785156 13.199219 15.839844 13.0625 C 15.898438 12.929688 15.976562 12.8125 16.078125 12.707031 C 16.179688 12.605469 16.296875 12.527344 16.429688 12.472656 C 16.5625 12.417969 16.703125 12.386719 16.847656 12.386719 C 16.992188 12.386719 17.128906 12.417969 17.265625 12.472656 C 17.398438 12.527344 17.515625 12.605469 17.617188 12.707031 C 17.71875 12.8125 17.796875 12.929688 17.851562 13.0625 C 17.910156 13.199219 17.9375 13.335938 17.9375 13.480469 Z M 17.9375 13.480469 " fill-opacity="1" fill-rule="nonzero"/><path fill="#f4eade" d="M 10.171875 13.242188 C 10.171875 13.386719 10.140625 13.527344 10.085938 13.660156 C 10.03125 13.792969 9.953125 13.910156 9.851562 14.015625 C 9.75 14.117188 9.632812 14.195312 9.496094 14.25 C 9.363281 14.304688 9.226562 14.335938 9.082031 14.335938 C 8.9375 14.335938 8.796875 14.304688 8.664062 14.25 C 8.53125 14.195312 8.414062 14.117188 8.3125 14.015625 C 8.210938 13.910156 8.128906 13.792969 8.074219 13.660156 C 8.019531 13.527344 7.992188 13.386719 7.992188 13.242188 C 7.992188 13.097656 8.019531 12.957031 8.074219 12.824219 C 8.128906 12.6875 8.210938 12.570312 8.3125 12.46875 C 8.414062 12.367188 8.53125 12.285156 8.664062 12.230469 C 8.796875 12.175781 8.9375 12.148438 9.082031 12.148438 C 9.226562 12.148438 9.363281 12.175781 9.496094 12.230469 C 9.632812 12.285156 9.75 12.367188 9.851562 12.46875 C 9.953125 12.570312 10.03125 12.6875 10.085938 12.824219 C 10.140625 12.957031 10.171875 13.097656 10.171875 13.242188 Z M 10.171875 13.242188 " fill-opacity="1" fill-rule="nonzero"/><path fill="#f4eade" d="M 12.472656 10.027344 C 13.660156 10.179688 14.523438 11.113281 14.394531 12.113281 C 14.261719 13.109375 13.195312 13.796875 12.007812 13.632812 Z M 12.472656 10.027344 " fill-opacity="1" fill-rule="nonzero"/><path fill="#f4eade" d="M 44.460938 8.355469 C 41.996094 7.71875 31.582031 5.351562 22.726562 8.425781 C 22.582031 8.476562 22.421875 8.476562 22.273438 8.425781 C 13.421875 5.351562 3.007812 7.71875 0.542969 8.355469 C 0.222656 8.441406 0 8.730469 0 9.0625 L 0 37.65625 C 0 37.65625 12.339844 34.011719 22.5 37.65625 C 32.664062 34.011719 45 37.65625 45 37.65625 L 45 9.0625 C 45 8.730469 44.78125 8.441406 44.460938 8.355469 Z M 38.652344 15.53125 L 38.265625 16.148438 L 30.578125 28.507812 L 28.15625 30.292969 C 27.894531 30.492188 27.53125 30.265625 27.589844 29.945312 L 28.121094 26.972656 L 35.804688 14.605469 L 36.15625 14.042969 C 36.550781 13.402344 37.367188 13.105469 38.042969 13.433594 C 38.570312 13.691406 38.875 14.214844 38.875 14.757812 C 38.875 15.019531 38.804688 15.289062 38.652344 15.53125 Z M 38.652344 15.53125 " fill-opacity="1" fill-rule="nonzero"/><path fill="#c07055" d="M 9.078125 11.785156 C 8.277344 11.785156 7.628906 12.4375 7.628906 13.242188 C 7.628906 14.042969 8.277344 14.699219 9.078125 14.699219 C 9.878906 14.699219 10.53125 14.042969 10.53125 13.242188 C 10.53125 12.4375 9.878906 11.785156 9.078125 11.785156 Z M 9.078125 13.96875 C 8.679688 13.96875 8.351562 13.644531 8.351562 13.242188 C 8.351562 12.839844 8.679688 12.511719 9.078125 12.511719 C 9.480469 12.511719 9.804688 12.839844 9.804688 13.242188 C 9.804688 13.644531 9.480469 13.96875 9.078125 13.96875 Z M 9.078125 13.96875 " fill-opacity="1" fill-rule="nonzero"/><path fill="#c07055" d="M 16.847656 12.027344 C 16.046875 12.027344 15.394531 12.679688 15.394531 13.484375 C 15.394531 14.289062 16.046875 14.941406 16.847656 14.941406 C 17.648438 14.941406 18.300781 14.289062 18.300781 13.484375 C 18.300781 12.679688 17.648438 12.027344 16.847656 12.027344 Z M 16.847656 14.210938 C 16.449219 14.210938 16.121094 13.886719 16.121094 13.484375 C 16.121094 13.082031 16.449219 12.753906 16.847656 12.753906 C 17.246094 12.753906 17.574219 13.082031 17.574219 13.484375 C 17.574219 13.886719 17.246094 14.210938 16.847656 14.210938 Z M 16.847656 14.210938 " fill-opacity="1" fill-rule="nonzero"/><path fill="#c07055" d="M 7.191406 10.332031 L 3.5625 11.0625 C 3.367188 11.101562 3.238281 11.292969 3.277344 11.492188 C 3.3125 11.664062 3.464844 11.785156 3.632812 11.785156 C 3.65625 11.785156 3.683594 11.78125 3.707031 11.777344 L 5.246094 11.46875 L 5.789062 14.371094 C 5.824219 14.546875 5.976562 14.667969 6.144531 14.667969 C 6.167969 14.667969 6.191406 14.667969 6.214844 14.664062 C 6.410156 14.625 6.539062 14.4375 6.503906 14.238281 L 5.957031 11.324219 L 7.335938 11.046875 C 7.53125 11.007812 7.660156 10.816406 7.621094 10.621094 C 7.582031 10.421875 7.390625 10.289062 7.191406 10.332031 Z M 7.191406 10.332031 " fill-opacity="1" fill-rule="nonzero"/><path fill="#c07055" d="M 12.515625 9.660156 C 12.320312 9.636719 12.132812 9.777344 12.109375 9.976562 L 11.644531 13.589844 C 11.628906 13.6875 11.65625 13.785156 11.714844 13.859375 C 11.773438 13.9375 11.859375 13.988281 11.957031 14 C 12.085938 14.015625 12.210938 14.023438 12.335938 14.023438 C 13.566406 14.023438 14.613281 13.242188 14.753906 12.15625 C 14.832031 11.566406 14.632812 10.976562 14.191406 10.503906 C 13.769531 10.046875 13.175781 9.746094 12.515625 9.660156 Z M 14.035156 12.0625 C 13.945312 12.761719 13.25 13.265625 12.414062 13.292969 L 12.777344 10.460938 C 13.125 10.5625 13.429688 10.75 13.660156 11 C 13.949219 11.3125 14.082031 11.691406 14.035156 12.0625 Z M 14.035156 12.0625 " fill-opacity="1" fill-rule="nonzero"/><path fill="#7c4d4d" d="M 18.152344 20.527344 C 18.132812 20.527344 18.113281 20.527344 18.089844 20.523438 C 13.839844 19.8125 8.09375 20.519531 8.035156 20.527344 C 7.832031 20.554688 7.65625 20.410156 7.628906 20.210938 C 7.605469 20.011719 7.746094 19.828125 7.945312 19.804688 C 8.183594 19.773438 13.855469 19.078125 18.210938 19.804688 C 18.410156 19.835938 18.542969 20.027344 18.507812 20.222656 C 18.480469 20.402344 18.324219 20.527344 18.152344 20.527344 Z M 18.152344 20.527344 " fill-opacity="1" fill-rule="nonzero"/><path fill="#7c4d4d" d="M 18.152344 25.628906 C 18.132812 25.628906 18.113281 25.628906 18.089844 25.625 C 13.839844 24.914062 8.09375 25.621094 8.035156 25.628906 C 7.832031 25.652344 7.65625 25.511719 7.628906 25.3125 C 7.605469 25.113281 7.746094 24.929688 7.945312 24.90625 C 8.183594 24.875 13.855469 24.179688 18.210938 24.90625 C 18.410156 24.9375 18.542969 25.128906 18.507812 25.324219 C 18.480469 25.503906 18.324219 25.628906 18.152344 25.628906 Z M 18.152344 25.628906 " fill-opacity="1" fill-rule="nonzero"/><path fill="#7c4d4d" d="M 18.152344 30.730469 C 18.132812 30.730469 18.113281 30.730469 18.089844 30.726562 C 13.839844 30.015625 8.09375 30.722656 8.035156 30.730469 C 7.832031 30.757812 7.65625 30.613281 7.628906 30.414062 C 7.605469 30.210938 7.746094 30.03125 7.945312 30.003906 C 8.183594 29.976562 13.855469 29.28125 18.210938 30.007812 C 18.410156 30.039062 18.542969 30.230469 18.507812 30.425781 C 18.480469 30.605469 18.324219 30.730469 18.152344 30.730469 Z M 18.152344 30.730469 " fill-opacity="1" fill-rule="nonzero"/><path fill="#aa9f9f" d="M 36.476562 20.957031 C 36.410156 20.957031 36.34375 20.9375 36.285156 20.902344 C 36.117188 20.792969 36.0625 20.570312 36.171875 20.398438 L 38.667969 16.378906 L 36.292969 14.871094 C 36.125 14.765625 36.074219 14.539062 36.179688 14.371094 C 36.289062 14.199219 36.511719 14.148438 36.679688 14.253906 L 39.363281 15.957031 C 39.53125 16.0625 39.582031 16.289062 39.476562 16.457031 L 36.785156 20.785156 C 36.714844 20.894531 36.597656 20.957031 36.476562 20.957031 Z M 36.476562 20.957031 " fill-opacity="1" fill-rule="nonzero"/><path fill="#aa9f9f" d="M 38.875 14.757812 C 38.875 15.019531 38.804688 15.289062 38.652344 15.53125 L 38.265625 16.148438 L 35.804688 14.605469 L 36.191406 13.984375 C 36.609375 13.300781 37.511719 13.09375 38.195312 13.519531 C 38.628906 13.796875 38.875 14.269531 38.875 14.757812 Z M 38.875 14.757812 " fill-opacity="1" fill-rule="nonzero"/><path fill="#c07055" d="M 35.804688 14.605469 L 38.265625 16.148438 L 30.578125 28.507812 L 28.121094 26.972656 Z M 35.804688 14.605469 " fill-opacity="1" fill-rule="nonzero"/><path fill="#c07055" d="M 5.75 28.851562 L 5.875 31.765625 L 2.96875 31.882812 L 2.855469 28.976562 Z M 5.75 28.851562 " fill-opacity="1" fill-rule="nonzero"/><path fill="#c07055" d="M 5.75 23.75 L 5.875 26.664062 L 2.96875 26.78125 L 2.855469 23.875 Z M 5.75 23.75 " fill-opacity="1" fill-rule="nonzero"/><path fill="#c07055" d="M 5.75 18.648438 L 5.875 21.5625 L 2.96875 21.679688 L 2.855469 18.773438 Z M 5.75 18.648438 " fill-opacity="1" fill-rule="nonzero"/></svg>