<svg xmlns="http://www.w3.org/2000/svg" xmlns:xlink="http://www.w3.org/1999/xlink" width="60" zoomAndPan="magnify" viewBox="0 0 45 44.999999" height="60" preserveAspectRatio="xMidYMid meet" version="1.0"><defs><clipPath id="c65335df74"><path d="M 0 0 L 44 0 L 44 43.5 L 0 43.5 Z M 0 0 " clip-rule="nonzero"/></clipPath></defs><g clip-path="url(#c65335df74)"><path fill="#383838" d="M 6.621094 2.898438 L 11.085938 2.898438 L 11.085938 0 L 6.621094 0 C 5.382812 0 4.175781 0.347656 3.136719 1.007812 L 4.6875 3.457031 C 5.261719 3.09375 5.933594 2.898438 6.621094 2.898438 Z M 2.992188 6.523438 C 2.992188 5.992188 3.105469 5.484375 3.324219 5.007812 L 0.691406 3.792969 C 0.292969 4.652344 0.09375 5.570312 0.09375 6.523438 L 0.09375 11.65625 L 2.992188 11.65625 Z M 0.09375 14.585938 L 2.992188 14.585938 L 2.992188 21.890625 L 0.09375 21.890625 Z M 39.152344 3.550781 C 40.027344 2.996094 40.898438 2.472656 41.761719 1.984375 C 41.269531 1.476562 40.695312 1.046875 40.066406 0.722656 C 39.148438 0.25 38.117188 0 37.074219 0 L 34.507812 0 L 34.507812 2.898438 L 37.074219 2.898438 C 37.835938 2.898438 38.554688 3.128906 39.152344 3.550781 Z M 0.09375 24.820312 L 2.992188 24.820312 L 2.992188 32.140625 L 0.09375 32.140625 Z M 14.015625 0 L 21.328125 0 L 21.328125 2.898438 L 14.015625 2.898438 Z M 24.253906 0 L 31.578125 0 L 31.578125 2.898438 L 24.253906 2.898438 Z M 27.488281 40.59375 L 34.800781 40.59375 L 34.800781 43.492188 L 27.488281 43.492188 Z M 40.703125 16.46875 L 43.605469 16.46875 L 43.605469 23.789062 L 40.703125 23.789062 Z M 40.703125 26.71875 L 43.605469 26.71875 L 43.605469 34.023438 L 40.703125 34.023438 Z M 2.992188 36.96875 L 2.992188 35.070312 L 0.09375 35.070312 L 0.09375 36.96875 C 0.09375 39.34375 1.386719 41.53125 3.464844 42.679688 L 4.867188 40.144531 C 3.710938 39.503906 2.992188 38.285156 2.992188 36.96875 Z M 40.703125 11.617188 L 40.703125 13.539062 L 43.605469 13.539062 L 43.605469 9.234375 C 42.648438 9.945312 41.683594 10.738281 40.703125 11.617188 Z M 40.703125 36.96875 C 40.703125 38.785156 39.347656 40.332031 37.546875 40.5625 L 37.917969 43.4375 C 39.476562 43.238281 40.914062 42.476562 41.960938 41.292969 C 43.019531 40.097656 43.605469 38.5625 43.605469 36.96875 L 43.605469 36.953125 L 40.703125 36.953125 Z M 6.980469 40.59375 L 14.304688 40.59375 L 14.304688 43.492188 L 6.980469 43.492188 Z M 17.234375 40.59375 L 24.558594 40.59375 L 24.558594 43.492188 L 17.234375 43.492188 Z M 17.234375 40.59375 " fill-opacity="1" fill-rule="nonzero"/></g><path fill="#af2f2f" d="M 6.734375 23.085938 L 20.34375 36.683594 C 20.34375 36.683594 33.949219 10.519531 48.65625 4.652344 L 48.105469 0.511719 C 40.09375 3.6875 27.9375 12.039062 18.957031 24.8125 L 9.496094 19.21875 L 6.734375 23.085938 " fill-opacity="1" fill-rule="nonzero"/></svg>