<svg xmlns="http://www.w3.org/2000/svg" xmlns:xlink="http://www.w3.org/1999/xlink" width="60" zoomAndPan="magnify" viewBox="0 0 45 44.999999" height="60" preserveAspectRatio="xMidYMid meet" version="1.0"><defs><clipPath id="a96494e955"><path d="M 1.050781 0.675781 L 44.550781 0.675781 L 44.550781 44.175781 L 1.050781 44.175781 Z M 1.050781 0.675781 " clip-rule="nonzero"/></clipPath></defs><g clip-path="url(#a96494e955)"><path fill="#3ab54a" d="M 40.875 22.425781 C 40.875 32.390625 32.765625 40.5 22.800781 40.5 C 12.835938 40.5 4.726562 32.390625 4.726562 22.425781 C 4.726562 12.460938 12.835938 4.351562 22.800781 4.351562 C 32.765625 4.351562 40.875 12.460938 40.875 22.425781 Z M 38.179688 7.046875 C 34.070312 2.9375 28.609375 0.675781 22.800781 0.675781 C 16.992188 0.675781 11.53125 2.9375 7.421875 7.046875 C 3.3125 11.15625 1.050781 16.617188 1.050781 22.425781 C 1.050781 28.234375 3.3125 33.695312 7.421875 37.804688 C 11.53125 41.910156 16.992188 44.171875 22.800781 44.171875 C 28.609375 44.171875 34.070312 41.910156 38.179688 37.804688 C 42.285156 33.695312 44.546875 28.234375 44.546875 22.425781 C 44.546875 16.617188 42.285156 11.15625 38.179688 7.046875 " fill-opacity="1" fill-rule="nonzero"/></g><path fill="#3ab54a" d="M 32.445312 14.222656 L 20.519531 26.148438 L 15.566406 21.191406 L 12.207031 24.550781 L 20.519531 32.863281 L 35.804688 17.582031 L 32.445312 14.222656 " fill-opacity="1" fill-rule="nonzero"/></svg>